<svg width="48" height="49" viewBox="0 0 48 49" fill="none" xmlns="http://www.w3.org/2000/svg">
<path d="M32.1912 26.56L31.0612 24.68C30.8112 24.27 30.5912 23.48 30.5912 23V21.13C30.5912 17.5 27.6412 14.55 24.0212 14.55C20.3912 14.56 17.4412 17.5 17.4412 21.13V22.99C17.4412 23.47 17.2212 24.26 16.9812 24.67L15.8512 26.55C15.4212 27.28 15.3212 28.11 15.5912 28.83C15.8612 29.56 16.4712 30.14 17.2712 30.4C18.3512 30.76 19.4412 31.02 20.5512 31.21C20.6612 31.23 20.7712 31.24 20.8812 31.26C21.0212 31.28 21.1712 31.3 21.3212 31.32C21.5812 31.36 21.8412 31.39 22.1112 31.41C22.7412 31.47 23.3812 31.5 24.0212 31.5C24.6512 31.5 25.2812 31.47 25.9012 31.41C26.1312 31.39 26.3612 31.37 26.5812 31.34C26.7612 31.32 26.9412 31.3001 27.1212 31.2701C27.2312 31.2601 27.3412 31.24 27.4512 31.22C28.5712 31.04 29.6812 30.76 30.7612 30.4C31.5312 30.14 32.1212 29.56 32.4012 28.82C32.6812 28.07 32.6012 27.25 32.1912 26.56ZM24.7512 22.5C24.7512 22.92 24.4112 23.26 23.9912 23.26C23.5712 23.26 23.2312 22.92 23.2312 22.5V19.4C23.2312 18.98 23.5712 18.64 23.9912 18.64C24.4112 18.64 24.7512 18.98 24.7512 19.4V22.5Z" fill="white" fill-opacity="0.5"/>
<path d="M26.8297 32.51C26.4097 33.67 25.2997 34.5 23.9997 34.5C23.2097 34.5 22.4297 34.18 21.8797 33.61C21.5597 33.31 21.3197 32.91 21.1797 32.5C21.3097 32.52 21.4397 32.53 21.5797 32.55C21.8097 32.58 22.0497 32.61 22.2897 32.63C22.8597 32.68 23.4397 32.71 24.0197 32.71C24.5897 32.71 25.1597 32.68 25.7197 32.63C25.9297 32.61 26.1397 32.6 26.3397 32.57C26.4997 32.55 26.6597 32.53 26.8297 32.51Z" fill="white" fill-opacity="0.5"/>
<circle cx="24" cy="24.5" r="23.5" stroke="#6884CA" stroke-opacity="0.3"/>
</svg>
