<svg width="21" height="21" viewBox="0 0 21 21" fill="none" xmlns="http://www.w3.org/2000/svg">
<path d="M14.666 2.52515L6.33268 2.52515C3.83268 2.52515 2.16602 4.19181 2.16602 6.69181V11.6918C2.16602 14.1918 3.83268 15.8585 6.33268 15.8585V17.6335C6.33268 18.3001 7.07435 18.7001 7.62435 18.3251L11.3327 15.8585H14.666C17.166 15.8585 18.8327 14.1918 18.8327 11.6918V6.69181C18.8327 4.19181 17.166 2.52515 14.666 2.52515ZM10.4993 12.6668C10.1493 12.6668 9.87435 12.3835 9.87435 12.0418C9.87435 11.7001 10.1493 11.4168 10.4993 11.4168C10.8493 11.4168 11.1243 11.7001 11.1243 12.0418C11.1243 12.3835 10.8493 12.6668 10.4993 12.6668ZM11.5493 9.20848C11.2243 9.42515 11.1243 9.56681 11.1243 9.80015V9.97515C11.1243 10.3168 10.841 10.6001 10.4993 10.6001C10.1577 10.6001 9.87435 10.3168 9.87435 9.97515V9.80015C9.87435 8.83348 10.5827 8.35848 10.8493 8.17515C11.1577 7.96681 11.2577 7.82515 11.2577 7.60848C11.2577 7.19181 10.916 6.85015 10.4993 6.85015C10.0827 6.85015 9.74102 7.19181 9.74102 7.60848C9.74102 7.95015 9.45768 8.23348 9.11602 8.23348C8.77435 8.23348 8.49102 7.95015 8.49102 7.60848C8.49102 6.50015 9.39102 5.60015 10.4993 5.60015C11.6077 5.60015 12.5077 6.50015 12.5077 7.60848C12.5077 8.55848 11.8077 9.03348 11.5493 9.20848Z" fill="white"/>
</svg>
