<svg width="228" height="298" viewBox="0 0 228 298" fill="none" xmlns="http://www.w3.org/2000/svg">
<g clip-path="url(#clip0_109_833)">
<rect x="0.5" width="227" height="298" rx="8" fill="#F5F5F5"/>
<path d="M0.5 8C0.5 3.58173 4.08172 0 8.5 0H219.5C223.918 0 227.5 3.58172 227.5 8V163.788H0.5V8Z" fill="#EDEDED"/>
<!-- <rect x="165.5" y="14" width="48" height="48" rx="24" fill="white"/> -->
<g clip-path="url(#clip1_109_833)">
<!-- <path d="M189.501 30.529C191.85 28.42 195.48 28.49 197.743 30.757C200.005 33.025 200.083 36.637 197.979 38.993L189.499 47.485L181.021 38.993C178.917 36.637 178.996 33.019 181.257 30.757C183.522 28.493 187.145 28.417 189.501 30.529ZM196.327 32.17C194.827 30.668 192.407 30.607 190.837 32.017L189.502 33.215L188.166 32.018C186.591 30.606 184.176 30.668 182.672 32.172C181.182 33.662 181.107 36.047 182.48 37.623L189.5 44.654L196.52 37.624C197.894 36.047 197.819 33.665 196.327 32.17Z" fill="#D9D9D9"/> -->
</g>
<rect x="11.5347" y="195" width="204.597" height="14.7236" rx="7.36182" fill="#E3E3E3"/>
<rect x="11.5347" y="225.724" width="204.597" height="14.7236" rx="7.36182" fill="#E3E3E3"/>
<rect x="11.5347" y="256.447" width="204.597" height="14.7236" rx="7.36182" fill="#E3E3E3"/>
</g>
<defs>
<clipPath id="clip0_109_833">
<rect x="0.5" width="227" height="298" rx="8" fill="white"/>
</clipPath>
<clipPath id="clip1_109_833">
<rect width="24" height="24" fill="white" transform="translate(177.5 26)"/>
</clipPath>
</defs>
</svg>
