<svg width="20" height="20" viewBox="0 0 20 20" fill="none" xmlns="http://www.w3.org/2000/svg">
<path d="M16.8253 11.7166L15.8837 10.1499C15.6753 9.80825 15.492 9.14992 15.492 8.74992V7.19159C15.492 4.16659 13.0337 1.70825 10.017 1.70825C6.992 1.71659 4.53367 4.16659 4.53367 7.19159V8.74159C4.53367 9.14159 4.35033 9.79992 4.15033 10.1416L3.20867 11.7083C2.85033 12.3166 2.767 13.0083 2.992 13.6083C3.217 14.2166 3.72533 14.6999 4.392 14.9166C5.292 15.2166 6.20033 15.4333 7.12533 15.5916C7.217 15.6083 7.30866 15.6166 7.40033 15.6333C7.517 15.6499 7.642 15.6666 7.767 15.6833C7.98366 15.7166 8.20033 15.7416 8.42533 15.7583C8.95033 15.8083 9.48367 15.8333 10.017 15.8333C10.542 15.8333 11.067 15.8083 11.5837 15.7583C11.7753 15.7416 11.967 15.7249 12.1503 15.6999C12.3003 15.6833 12.4503 15.6666 12.6003 15.6416C12.692 15.6333 12.7837 15.6166 12.8753 15.5999C13.8087 15.4499 14.7337 15.2166 15.6337 14.9166C16.2753 14.6999 16.767 14.2166 17.0003 13.5999C17.2337 12.9749 17.167 12.2916 16.8253 11.7166ZM10.6253 8.33325C10.6253 8.68325 10.342 8.96659 9.992 8.96659C9.642 8.96659 9.35866 8.68325 9.35866 8.33325V5.74992C9.35866 5.39992 9.642 5.11659 9.992 5.11659C10.342 5.11659 10.6253 5.39992 10.6253 5.74992V8.33325Z" fill="#0F172B"/>
<path d="M12.3587 16.6751C12.0087 17.6417 11.0837 18.3334 10.0004 18.3334C9.34206 18.3334 8.69206 18.0667 8.23372 17.5917C7.96706 17.3417 7.76706 17.0084 7.65039 16.6667C7.75872 16.6834 7.86706 16.6917 7.98372 16.7084C8.17539 16.7334 8.37539 16.7584 8.57539 16.7751C9.05039 16.8167 9.53372 16.8417 10.0171 16.8417C10.4921 16.8417 10.9671 16.8167 11.4337 16.7751C11.6087 16.7584 11.7837 16.7501 11.9504 16.7251C12.0837 16.7084 12.2171 16.6917 12.3587 16.6751Z" fill="#0F172B"/>
</svg>
