<svg width="24" height="25" viewBox="0 0 24 25" fill="none" xmlns="http://www.w3.org/2000/svg">
<path d="M11.5 22.25C5.85 22.25 1.25 17.65 1.25 12C1.25 6.35 5.85 1.75 11.5 1.75C17.15 1.75 21.75 6.35 21.75 12C21.75 17.65 17.15 22.25 11.5 22.25ZM11.5 3.25C6.67 3.25 2.75 7.18 2.75 12C2.75 16.82 6.67 20.75 11.5 20.75C16.33 20.75 20.25 16.82 20.25 12C20.25 7.18 16.33 3.25 11.5 3.25Z" fill="#BDBDBD"/>
<path d="M21.9995 23.2499C21.8095 23.2499 21.6195 23.1799 21.4695 23.0299L19.4695 21.0299C19.1795 20.7399 19.1795 20.2599 19.4695 19.9699C19.7595 19.6799 20.2395 19.6799 20.5295 19.9699L22.5295 21.9699C22.8195 22.2599 22.8195 22.7399 22.5295 23.0299C22.3795 23.1799 22.1895 23.2499 21.9995 23.2499Z" fill="#BDBDBD"/>
</svg>
