<svg width="585" height="534" viewBox="0 0 585 534" fill="none" xmlns="http://www.w3.org/2000/svg">
<circle cx="295" cy="267" r="267" fill="url(#paint0_linear_3195_64710)"/>
<circle cx="295" cy="267" r="210" fill="url(#paint1_linear_3195_64710)"/>
<circle cx="295" cy="267" r="209.5" stroke="url(#paint2_linear_3195_64710)" stroke-opacity="0.2"/>
<path fill-rule="evenodd" clip-rule="evenodd" d="M435.405 88.2179C434.167 88.8773 428.833 92.0152 423.551 95.1915C414.199 100.815 402.246 107.522 390.79 113.573C387.683 115.214 383.545 117.436 381.595 118.512L378.049 120.468L375.518 118.135C372.717 115.553 370.952 114.704 368.385 114.704C364.016 114.704 359.44 119.123 359.44 123.342V125.597L362.976 121.845C366.627 117.971 367.865 117.448 370.351 118.729C371.825 119.489 374.126 121.523 374.126 122.068C374.126 122.281 372.538 123.296 370.596 124.323C349.748 135.351 323.946 150.336 310.58 159.177C300.597 165.78 294.04 171.462 290.555 176.528C287.738 180.624 284.975 186.903 284.573 190.124C284.176 193.296 284.662 196.826 285.429 196.352C285.681 196.197 286.823 193.716 287.968 190.839C291.348 182.346 293.651 178.695 298.943 173.439C306.387 166.048 317.047 158.778 338.996 146.125C355.48 136.622 375.14 126.003 376.25 126.003C377.631 126.003 382.56 140.282 383.978 148.391C385.305 155.977 385.277 156.125 382.176 158.118C377.927 160.848 375.133 163.997 375.353 165.809L375.538 167.339L377.798 165.598C379.041 164.641 381.048 163.095 382.26 162.162C383.471 161.229 384.715 160.467 385.025 160.467C385.682 160.467 385.181 167.565 384.306 170.662C383.027 175.187 381.329 175.587 377.23 172.329C374.754 170.361 373.917 170.392 373.671 172.46C373.464 174.188 376.376 177.816 378.372 178.317C379.523 178.605 379.612 178.838 379.169 180.382C378.589 182.408 379.002 184.629 380.221 186.032C381.302 187.276 384.723 187.335 386.431 186.139C389.298 184.13 390.212 179.76 388.279 177.301C387.189 175.916 387.19 175.871 388.302 172.297C389.063 169.852 389.462 166.803 389.542 162.829L389.66 156.97L395.778 153.849C399.234 152.088 402.11 150.942 402.387 151.219C403.959 152.795 405.433 164.988 404.147 165.783C403.438 166.221 402.188 165.042 400.167 162.029C398.465 159.492 396.394 157.78 395.776 158.399C395.151 159.023 396.919 165.232 398.782 168.956C401.898 175.186 404.226 175.798 413.518 172.83C424.126 169.441 433.788 164.974 446.146 157.747C458.121 150.743 461.706 148.37 463.946 145.963L466.139 143.607L464.775 140.777C462.873 136.835 460.541 134.361 456.14 131.614C448.838 127.057 448.382 126.1 450.111 118.941C452.271 109.993 450.184 104.099 444.079 101.906C439.867 100.392 436.819 97.4836 436.442 94.6163C436.165 92.5033 436.31 92.1796 438.319 90.4332C439.517 89.3925 440.7 88.1982 440.949 87.7801C441.681 86.5467 437.997 86.8377 435.405 88.2179ZM384.439 121.297L379.783 123.788L381.754 127.702C384.942 134.033 388.771 147.151 388.804 151.851C388.809 152.55 388.959 153.122 389.138 153.122C389.316 153.122 392.494 151.576 396.199 149.688C400.351 147.569 402.934 145.923 402.934 145.392C402.934 143.833 399.617 134.592 397.57 130.449C395.568 126.399 390.169 118.592 389.465 118.732C389.262 118.772 387 119.926 384.439 121.297ZM367.4 163.27C366.364 167.059 364.331 172.493 362.728 175.761C360.318 180.674 359.154 182.287 355.005 186.457C347.069 194.436 339.925 197.888 326.146 200.404C323.716 200.848 323.478 201.088 318.682 207.925C309.279 221.331 300.76 230.504 295.784 232.584C293.377 233.59 292.595 233.549 291.109 232.346L289.871 231.343L290.939 228.532C291.526 226.987 293.679 223.052 295.723 219.789C301.442 210.663 302.685 208.428 303.998 204.917C305.357 201.286 305.676 195.813 304.508 196.2C303.745 196.452 303.696 196.543 299.983 204.535C298.612 207.487 295.758 212.699 293.642 216.117C286.386 227.835 285.339 231.23 288.006 234.399C289.884 236.633 294.558 237.798 297.772 236.835C305.726 234.452 319.092 220.678 325.254 208.513L326.579 205.899L333.298 204.06C341.804 201.732 345.372 200.071 349.033 196.739C350.637 195.278 353.505 192.734 355.404 191.085C364.268 183.39 370.172 171.639 370.172 161.688C370.172 159.189 369.962 157.013 369.704 156.854C369.446 156.694 368.409 159.582 367.4 163.27ZM416.208 187.278C402.731 189.668 391.402 192.233 386.553 193.992C383.912 194.951 382.148 195.817 382.632 195.918C383.116 196.019 387.31 195.353 391.952 194.439C399.182 193.015 405.675 191.933 422.693 189.318C427.11 188.639 430.088 190.09 432.061 193.881L432.838 195.374L429.324 195.988C420.029 197.612 409.581 198.647 394.683 199.417C386.251 199.853 381.938 199.757 370.114 198.87C359.006 198.036 355.293 197.937 353.652 198.429C352.486 198.778 351.532 199.248 351.532 199.473C351.532 200.224 356.344 201.105 365.982 202.118C379.006 203.487 407.258 203.439 417.903 202.029C438.839 199.257 451.156 195.859 449.57 193.293C449.031 192.42 445.024 192.53 441.344 193.518C436.627 194.784 436.469 194.728 435.388 191.399C433.819 186.567 432.873 185.883 427.831 185.933C425.477 185.957 420.247 186.562 416.208 187.278ZM451.926 199.226C451.753 200.126 451.855 209.634 452.152 220.354C452.565 235.218 452.514 243.334 451.936 254.536C451.03 272.121 451.086 272.76 453.379 271.061C455.684 269.353 456.77 247.629 455.718 224.268C454.917 206.501 454.41 201.73 453.04 199.116L452.24 197.589L451.926 199.226ZM158.669 198.88C154.019 199.471 150.406 200.755 148.989 202.322C148.028 203.384 148.004 203.981 148.623 211.468C148.988 215.874 149.101 219.65 148.876 219.861C148.533 220.182 140.952 222.724 135.757 224.261C134.812 224.54 134.288 225.151 134.174 226.105C134.075 226.933 137.234 235.795 141.711 247.248C145.949 258.092 150.304 269.762 151.388 273.18C152.472 276.598 154.482 282.776 155.855 286.909L158.351 294.422V303.75C158.351 308.964 158.57 312.942 158.847 312.771C160.019 312.046 161.216 308.254 161.662 303.848C162.555 295.04 160.408 270.741 154.949 227.842C153.714 218.132 152.703 208.936 152.703 207.405C152.703 204.7 152.761 204.602 154.821 203.873C157.853 202.799 198.662 202.982 221.829 204.174C259.801 206.127 283.78 205.059 294.199 200.95L298.718 199.168L296.207 198.989C294.826 198.89 287.836 199.242 280.674 199.771C264.167 200.989 237.436 200.986 214.554 199.766C194.041 198.672 164.048 198.196 158.669 198.88ZM145.924 224.266C145.458 224.534 143.425 225.202 141.405 225.752C139.386 226.301 137.654 226.811 137.556 226.885C137.458 226.959 138.311 229.27 139.452 232.021C143.937 242.835 149.65 257.889 153.356 268.66C155.495 274.875 157.119 279.197 156.966 278.265C156.813 277.332 156.414 273.9 156.08 270.637C155.086 260.937 153.898 253.549 151.218 240.411C147.582 222.579 147.784 223.197 145.924 224.266ZM360.207 236.174C360.398 239.126 360.716 243.207 360.915 245.243L361.277 248.945L356.546 249.955C337.913 253.931 322.957 268.625 319.581 286.272C319.135 288.604 318.77 293.031 318.77 296.111V301.711L316.935 301.747C309.109 301.902 301.855 302.759 300.223 303.724C299.24 304.304 298.436 304.964 298.436 305.188C298.436 306.057 303.566 306.277 311.145 305.733C315.494 305.421 319.21 305.342 319.403 305.557C319.596 305.772 320.319 307.846 321.009 310.166C323.904 319.883 329.812 328.523 337.965 334.965C341.378 337.66 347.109 340.737 350.751 341.827L353.078 342.524L350.61 346.527C347.863 350.985 347.736 351.507 349.081 352.852C350.128 353.899 352.753 353.707 357.774 352.216C360.135 351.515 360.57 351.171 360.57 350.006C360.57 348.177 358.666 347.712 355.903 348.867C354.742 349.352 353.792 349.525 353.792 349.251C353.792 348.977 355.115 347.039 356.732 344.943L359.673 341.134L360.969 342.64C361.681 343.469 362.264 344.786 362.264 345.566C362.264 347.348 363.213 349.169 364.142 349.169C364.531 349.169 365.783 348.693 366.924 348.112C368.065 347.53 369.136 347.191 369.303 347.358C369.47 347.526 369.629 349.464 369.655 351.665C369.753 359.845 370.82 364.008 372.546 362.941C373.127 362.581 373.087 350.737 372.494 347.678L372.041 345.339L375.484 343.727C380.264 341.489 385.459 338.501 387.003 337.104L388.299 335.93L390.656 338.736C397.727 347.157 407.699 355.311 419.372 362.221C429.561 368.251 437.453 371.6 446.83 373.871L448.643 374.311L448.896 385.045C449.16 396.277 450.186 404.59 451.931 409.64C453.074 412.947 454.437 414.267 455.555 413.148C456.093 412.611 456.029 411.563 455.259 408.298C453.712 401.733 452.099 387.892 452.088 381.091L452.079 374.876L461.257 374.846C468.357 374.823 471.218 374.587 473.899 373.801C477.722 372.681 482.548 369.823 481.345 369.391C480.936 369.244 477.806 369.608 474.388 370.199C470.426 370.884 465.412 371.28 460.549 371.292C449.218 371.318 442.16 369.577 430.33 363.84C406.731 352.395 385.514 331.292 386.468 320.214C386.684 317.702 390.689 319.752 402.76 328.554C416.872 338.845 424.514 342.078 429.652 339.93C433.529 338.31 434.16 333.376 431.121 328.457C428.536 324.274 421.41 319.201 420.042 320.57C419.865 320.747 420.709 322.049 421.918 323.462C430.413 333.398 431.448 336.74 426.03 336.74C422.663 336.74 418.718 334.96 411.659 330.259C405.79 326.349 404.175 324.875 405.761 324.875C406.073 324.875 413.508 320.979 422.283 316.216C431.058 311.454 442.414 305.332 447.518 302.612C459.516 296.218 465.094 292.61 467.886 289.438C471.876 284.904 471.917 281.23 468.024 276.878C465.699 274.277 462.819 273.254 459.42 273.82C456.93 274.235 448.788 278.486 436.955 285.548C428.842 290.39 427.666 290.935 426.928 290.198C425.707 288.976 420.334 288.017 417.212 288.464C414.316 288.879 406.588 291.671 402.048 293.942C399.81 295.063 398.042 295.408 393.049 295.7C389.632 295.9 382.774 296.43 377.811 296.876C372.847 297.322 368.739 297.639 368.681 297.581C368.624 297.522 368.283 293.406 367.924 288.434C367.565 283.462 366.798 275.2 366.22 270.072C365.642 264.945 364.998 258.907 364.789 256.654L364.409 252.558H368.358C376.68 252.558 387.108 255.559 393.783 259.874C398.886 263.173 401.506 265.775 406.64 272.645C409.207 276.08 411.753 279.258 412.297 279.708C413.222 280.471 413.261 280.358 412.906 277.982C412.234 273.488 408.715 267.406 404.064 262.702C395.118 253.655 382.442 248.603 368.686 248.603C365.283 248.603 363.958 248.406 363.956 247.897C363.948 246.217 362.198 235.716 361.626 233.914C360.343 229.874 359.851 230.659 360.207 236.174ZM228.111 271.317C227.49 271.671 224.058 274.284 220.485 277.124C211.286 284.435 207.937 286.853 186.029 302.006C175.311 309.42 164.381 317.033 161.74 318.926L156.939 322.367L152.703 321.146C141.977 318.053 128.044 316.838 120.026 318.296C113.429 319.496 108.294 322.148 101.583 327.822C83.9714 342.712 63.5756 368.782 43.9966 401.43C37.5182 412.233 36.7438 413.294 35.3407 413.294C33.8856 413.294 33.8082 413.425 33.9472 415.655C34.0703 417.634 33.2824 419.685 29.0623 428.367C24.2492 438.269 20.376 447.467 17.6861 455.385C16.3107 459.434 15.3849 469.685 16.488 468.651C16.8258 468.335 18.595 464.012 20.4194 459.047C24.1966 448.765 29.1527 436.951 32.5752 430.07L34.9097 425.375L37.447 428.375C43.918 436.023 49.8112 441.034 61.4117 448.748C74.5175 457.465 81.8945 460.384 86.2348 458.569C88.8281 457.486 89.6206 455.889 89.3257 452.337C88.8631 446.756 81.6815 435.603 77.1248 433.388C75.7449 432.718 74.4892 432.296 74.3339 432.452C73.647 433.139 74.9897 435.726 78.7578 440.978C82.5892 446.318 85.3169 451.221 84.7645 451.774C84.6273 451.912 83.4258 450.612 82.0944 448.887C80.7636 447.161 76.9486 443.136 73.6165 439.943L67.5584 434.136L69.471 429.513C70.5233 426.97 72.3936 423.297 73.6278 421.351C75.8765 417.806 76.5735 414.707 75.1224 414.707C72.6359 414.707 63.9925 430.505 61.8392 438.986L60.8231 442.988L54.6277 436.899C48.8057 431.175 42.9115 424.07 40.2668 419.587L39.1026 417.612L40.347 415.172C42.7092 410.541 50.6766 397.444 57.1272 387.588C74.3457 361.28 93.7728 338.586 108.799 327.227C114.586 322.853 118.665 321.757 128.979 321.809C136.452 321.846 148.406 323.391 152.284 324.82C153.038 325.098 151.399 326.496 145.506 330.606C131.798 340.165 122.124 348.269 119.334 352.532C118.45 353.882 118.428 353.885 116.074 352.943C112.847 351.651 112.697 351.729 114.597 353.712C116.892 356.108 120.846 358.549 124.788 360.002C127.612 361.042 129.317 361.234 135.757 361.233C143.016 361.232 143.869 361.105 153.501 358.59C159.067 357.138 164.234 355.949 164.983 355.949C166.407 355.949 169.648 358.734 169.648 359.957C169.648 361.404 164.438 365.583 159.919 367.76C157.348 368.998 151.308 371.576 146.497 373.489C141.685 375.402 136.728 377.481 135.482 378.109C134.235 378.736 130.277 382.117 126.685 385.62C123.095 389.123 118.19 393.273 115.789 394.842C108.492 399.606 99.9597 402.399 90.286 403.191C87.8006 403.394 85.2915 403.806 84.7097 404.106C83.6896 404.632 83.6941 404.693 84.8391 405.838C87.3561 408.355 98.5154 407.409 107.588 403.91C109.973 402.99 114.136 400.848 116.838 399.151L121.752 396.066L131.72 399.42C137.202 401.265 146.136 404.536 151.573 406.688L161.458 410.602L161.74 417.598C162.006 424.171 162.094 424.604 163.21 424.763C164.238 424.91 164.484 424.5 165.046 421.703C165.402 419.927 165.694 417.117 165.694 415.46C165.694 413.803 165.839 412.447 166.015 412.447C166.191 412.447 171.037 414.751 176.782 417.568C184.488 421.345 187.824 422.697 189.499 422.72C192.801 422.765 193.284 421.907 190.956 420.132C186.232 416.528 151.902 401.643 134.009 395.44L128.589 393.562L131.565 390.053C133.202 388.123 134.802 386.056 135.121 385.461C135.439 384.865 138.977 382.691 142.98 380.63L150.26 376.882L163.723 381.41C171.127 383.901 177.556 385.865 178.008 385.774C178.486 385.679 179.957 382.648 181.515 378.548C182.992 374.664 186.401 366.161 189.092 359.653C194.493 346.588 199.358 332.514 199.909 328.362C200.378 324.823 199.399 323.846 196.32 324.778C193.835 325.53 178.125 335.335 163.374 345.339C152.2 352.918 150.689 353.603 141.688 355.182C135.135 356.331 124.093 356.506 122.309 355.488C121.011 354.748 121.017 354.736 123.722 352.689C125.215 351.559 129.614 348.059 133.497 344.911C137.381 341.764 144.117 336.652 148.466 333.552C164.316 322.254 177.455 313.051 185.464 307.638C204.935 294.477 216.218 286.354 224.84 279.291C230.594 274.578 232.347 272.724 232.347 271.359C232.347 270.463 229.654 270.436 228.111 271.317ZM229.038 277.421C228.47 278.356 227.434 281.724 226.736 284.907C220.72 312.318 218.665 320.163 217.581 319.854C214.847 319.076 214.424 319.148 214.078 320.446C213.729 321.754 213.983 322.1 216.332 323.518C217.319 324.114 217.308 324.355 216.046 329.592C215.323 332.591 214.488 335.045 214.191 335.045C213.894 335.045 212.878 334.645 211.933 334.157C209.916 333.113 208.899 333.364 208.468 335.012C208.212 335.994 208.638 336.449 210.871 337.582L213.586 338.957L212.174 344.591C210.764 350.214 210.759 350.224 209.315 349.676C206.766 348.706 205.875 351.898 208.378 353.038C209.361 353.486 209.734 354.015 209.54 354.682C209.383 355.224 208.687 357.828 207.992 360.469C207.298 363.11 206.687 365.338 206.634 365.42C206.581 365.502 205.604 365.179 204.464 364.702C202.409 363.844 202.386 363.849 201.82 365.338C201.506 366.164 201.319 366.9 201.406 366.973C201.492 367.045 202.389 367.525 203.398 368.039C204.408 368.553 205.235 369.411 205.236 369.947C205.238 370.751 203.029 379.032 202.674 379.553C202.615 379.639 201.889 379.452 201.059 379.136C199.711 378.624 199.493 378.72 198.988 380.047C198.678 380.862 198.495 381.587 198.581 381.657C198.668 381.727 199.337 382.097 200.07 382.479C201.54 383.245 201.523 383.789 199.841 389.575L198.945 392.656L196.937 391.817C194.314 390.721 194.229 390.735 193.477 392.386C192.876 393.704 192.988 393.87 195.222 394.998C196.535 395.66 197.667 396.251 197.74 396.31C197.909 396.451 195.739 404.053 195.446 404.347C195.323 404.469 194.585 404.326 193.805 404.029C192.58 403.564 192.298 403.683 191.742 404.903C190.96 406.621 191.169 407.015 193.347 407.917L195.042 408.619L194.693 412.745C194.172 418.915 194.461 419.146 198.207 415.546L201.4 412.477L203.624 404.411C209.854 381.811 222.681 328.815 229.176 298.84C232.553 283.252 232.663 282.502 231.558 282.502C230.81 282.502 230.726 281.969 231.024 279.112C231.428 275.251 230.723 274.651 229.038 277.421ZM458.29 278.226C453.966 279.822 437.191 289.705 409.995 306.68C401.296 312.109 393.975 316.733 393.727 316.956C393.479 317.179 394.492 318.152 395.979 319.119L398.682 320.878L406.066 317.014C415.506 312.073 436.178 300.323 445.931 294.353C460.767 285.273 463.242 282.887 461.696 279.153C460.889 277.204 460.988 277.231 458.29 278.226ZM415.361 292.637C407.451 295.063 382.393 307.101 379.735 309.751C378.885 310.6 377.488 313.079 376.633 315.26C375.777 317.441 374.914 319.226 374.715 319.226C372.774 319.226 372.473 315.014 374.165 311.519C375.724 308.297 377.956 306.44 384.532 302.894C387.561 301.261 389.954 299.847 389.85 299.753C389.745 299.659 385.72 299.921 380.905 300.336C376.089 300.751 371.451 301.103 370.596 301.119C369.125 301.145 369.042 301.288 369.032 303.83C369.021 306.928 370.283 327.322 370.504 327.611C370.826 328.031 382.599 319.594 382.599 318.944C382.599 318.561 383.126 317.578 383.77 316.759C384.66 315.628 385.444 315.271 387.043 315.271C388.778 315.271 391.362 313.863 401.829 307.217C408.806 302.787 416.738 297.769 419.457 296.067C423.278 293.673 424.176 292.881 423.411 292.578C422.096 292.057 417.132 292.094 415.361 292.637ZM359.723 302.037C359.101 302.132 351.857 302.75 343.624 303.412C324.419 304.954 323.854 305.025 323.854 305.884C323.854 306.277 324.474 308.421 325.232 310.649C329.327 322.693 336.565 330.785 348.877 337.084L354.99 340.211L357.203 337.696C358.42 336.313 361.2 333.962 363.382 332.471C368.02 329.301 367.731 330.873 366.497 315.553C366.046 309.96 365.672 304.558 365.665 303.547C365.653 301.754 365.598 301.713 363.253 301.788C361.933 301.83 360.344 301.942 359.723 302.037ZM449.817 305.212C449.817 306.057 452.051 308.632 456.8 313.263C463.821 320.109 467.755 325.037 476.238 337.616C485.678 351.613 495.193 361.368 505.121 367.228C511.201 370.816 511.098 370.372 507.629 378.109C504.445 385.208 494.382 400.397 493.304 399.731C493.049 399.573 491.009 396.331 488.771 392.527C481.417 380.026 478.612 376.288 476.582 376.288C475.003 376.288 475.512 378.105 478.078 381.625C479.592 383.703 480.985 385.884 481.172 386.474C481.393 387.17 480.775 388.688 479.404 390.815C478.245 392.613 476.207 396.243 474.876 398.881L472.455 403.676L472.547 399.163C472.597 396.681 472.357 394.152 472.013 393.544C471.454 392.556 471.317 392.705 470.713 394.944C468.343 403.752 467.764 411.953 469.26 415.535C470.186 417.753 472.638 419.227 475.4 419.227C485.324 419.227 509.603 391.17 513.675 374.996C514.043 373.532 514.445 372.333 514.568 372.333C515.382 372.333 533.199 381.699 545.527 388.607C563.605 398.738 565.823 399.85 568.901 400.321C571.176 400.67 571.297 400.625 570.683 399.65C569.714 398.112 565.881 395.318 560.488 392.22C553.954 388.465 527.752 374.589 516.753 369.058C498.996 360.13 493.174 354.664 478.118 332.785C468.243 318.436 463.233 312.599 455.675 306.64C454.522 305.73 450.858 303.971 450.118 303.971C449.952 303.971 449.817 304.53 449.817 305.212ZM373.176 330.47C369.08 333.141 364.924 335.775 363.939 336.323L362.149 337.318L364.171 339.4L366.192 341.482L368.606 340.158C369.933 339.43 373.751 337.203 377.088 335.21L383.158 331.587L382.313 329.954C381.849 329.056 381.469 327.815 381.469 327.197C381.469 326.578 381.279 325.969 381.046 325.842C380.813 325.715 377.271 327.797 373.176 330.47ZM193.09 330.464C192.158 331.041 188.218 333.483 184.335 335.89C178.115 339.744 160.032 351.92 158.706 353.146C158.435 353.397 159.197 353.373 160.4 353.094C167.646 351.412 173.034 354.316 173.034 359.904C173.034 364.125 169.367 367.553 159.822 372.254L154.231 375.008L158.551 375.969C160.926 376.498 165.789 377.911 169.358 379.11C172.926 380.31 175.955 381.114 176.088 380.899C176.222 380.683 177.347 377.841 178.588 374.584C179.83 371.326 183.001 363.562 185.634 357.33C191.512 343.419 196.33 329.38 195.219 329.405C194.98 329.41 194.022 329.887 193.09 330.464ZM294.256 335.933C289.272 336.771 288.546 337.204 289.113 338.992C289.48 340.148 289.732 340.203 292.982 339.834C298.485 339.209 300.798 338.75 300.745 338.294C300.718 338.06 300.695 337.234 300.695 336.457C300.695 334.84 300.735 334.843 294.256 335.933ZM281.207 337.125C280.586 337.191 278.362 337.405 276.265 337.602C272.51 337.955 272.452 337.985 272.452 339.61C272.452 341.175 272.575 341.26 274.853 341.255C276.173 341.252 278.588 341.09 280.219 340.894C282.751 340.59 283.183 340.363 283.176 339.345C283.164 337.693 282.536 336.985 281.207 337.125ZM260.981 337.713C259.638 337.914 259.42 338.185 259.568 339.464C259.738 340.932 259.866 340.982 263.838 341.143L267.933 341.309V339.307V337.305L265.25 337.39C263.774 337.436 261.853 337.582 260.981 337.713ZM325.188 360.751C324.413 362.772 325.373 363.291 330.05 363.379C332.545 363.425 334.904 363.489 335.292 363.52C335.692 363.552 336.075 362.779 336.175 361.74L336.353 359.904H330.933C326.637 359.904 325.446 360.08 325.188 360.751ZM312.839 361.392C310.043 361.763 307.311 362.089 306.767 362.115C306.046 362.151 305.779 362.644 305.779 363.937V365.71L310.156 365.323C317.928 364.637 318.772 364.417 318.762 363.08C318.746 360.832 318.207 360.678 312.839 361.392ZM296.176 363.844C295.089 364.094 292.992 364.471 291.516 364.679C289.173 365.01 288.833 365.228 288.833 366.402C288.833 367.142 289.092 367.907 289.408 368.102C289.724 368.298 292.407 368.153 295.369 367.78L300.755 367.102L300.584 365.339C300.392 363.369 299.517 363.072 296.176 363.844ZM260.981 365.962C259.638 366.163 259.42 366.434 259.568 367.713C259.738 369.181 259.866 369.231 263.838 369.392L267.933 369.558V367.556V365.554L265.25 365.638C263.774 365.685 261.853 365.831 260.981 365.962ZM274.288 365.962C272.662 366.164 272.452 366.39 272.452 367.934V369.677L277.631 369.31C280.479 369.108 282.924 368.827 283.065 368.687C283.205 368.546 283.158 367.784 282.959 366.993C282.621 365.646 282.391 365.559 279.361 365.644C277.581 365.694 275.298 365.837 274.288 365.962ZM525.074 392.814C524.759 393.203 523.377 395.697 522.002 398.357C520.628 401.018 518.265 404.959 516.751 407.115C512.586 413.046 504.481 420.806 499.671 423.464C496.108 425.434 494.526 426.845 495.165 427.484C495.68 427.999 500.253 426.215 503.761 424.13C511.083 419.779 519.436 410.21 524.069 400.865C526.944 395.066 527.754 392.108 526.469 392.108C526.017 392.108 525.389 392.426 525.074 392.814ZM446.993 420.132C439.111 422.32 429.32 423.736 417.199 424.439C405.295 425.131 392.455 424.797 357.746 422.897C330.738 421.418 322.563 421.723 297.306 425.157C258.85 430.384 239.536 432.192 217.606 432.619C195.553 433.049 184.335 432.026 172.673 428.519C170.143 427.759 167.52 427.136 166.845 427.136H165.618L166.875 428.903C168.307 430.914 173.298 433.441 178.404 434.74C183.155 435.948 192.984 437.283 197.216 437.296L200.778 437.306L202.064 440.272C202.771 441.904 204.105 445.018 205.028 447.193C207.012 451.87 206.405 451.754 217.096 449.494C226.585 447.489 249.796 443.734 257.484 442.961C263.932 442.313 274.158 440.889 276.124 440.366C279.046 439.588 281.507 438.231 280.805 437.784C279.812 437.154 273.019 437.19 267.6 437.853C265.142 438.153 259.319 438.804 254.659 439.3C242.759 440.564 220.902 443.921 214.515 445.465L209.143 446.765L208.3 444.749C207.837 443.64 207.564 442.458 207.693 442.122C207.981 441.369 236.665 437.04 249.011 435.886C260.745 434.788 276.29 432.797 298.718 429.519L316.793 426.876L339.953 426.918C352.69 426.941 366.797 427.266 371.302 427.64C384.022 428.695 413.247 429.086 422.422 428.324C436.667 427.141 444.004 425.42 449.304 422.018C452.396 420.033 453.799 418.622 452.569 418.73C452.143 418.768 449.634 419.399 446.993 420.132ZM476.365 423.681C476.365 425.613 478.655 427.861 484.911 432.072C493.951 438.157 502.379 442.029 519.226 447.834C533.432 452.73 541.073 454.919 543.212 454.707L544.995 454.53L543.133 453.337C542.108 452.681 534.737 449.786 526.752 446.904C500.329 437.366 490.949 432.757 481.447 424.644C477.857 421.58 476.365 421.297 476.365 423.681ZM83.5145 461.024C83.3264 461.328 82.7937 463.75 82.33 466.405C80.9297 474.431 77.6225 486.421 75.2405 492.109C72.7896 497.961 72.4297 500.198 73.7312 501.499C74.4841 502.252 74.6705 502.201 75.4071 501.041C76.9994 498.535 81.5719 486.695 83.2208 480.809C85.2949 473.406 86.8946 463.924 86.4015 461.958C86.0253 460.458 84.2245 459.876 83.5145 461.024Z" fill="white"/>
<defs>
<linearGradient id="paint0_linear_3195_64710" x1="295" y1="-272.5" x2="295" y2="405" gradientUnits="userSpaceOnUse">
<stop stop-color="#182444"/>
<stop offset="1" stop-color="#182444" stop-opacity="0"/>
</linearGradient>
<linearGradient id="paint1_linear_3195_64710" x1="295" y1="-157.326" x2="295" y2="375.539" gradientUnits="userSpaceOnUse">
<stop stop-color="#182444"/>
<stop offset="1" stop-color="#182444" stop-opacity="0"/>
</linearGradient>
<linearGradient id="paint2_linear_3195_64710" x1="295" y1="57" x2="295" y2="477" gradientUnits="userSpaceOnUse">
<stop stop-color="#2463EB"/>
<stop offset="1" stop-color="#2463EB" stop-opacity="0"/>
</linearGradient>
</defs>
</svg>
