<svg width="585" height="534" viewBox="0 0 585 534" fill="none" xmlns="http://www.w3.org/2000/svg">
<circle cx="295" cy="267" r="267" fill="url(#paint0_linear_3195_64685)"/>
<circle cx="295" cy="267" r="210" fill="url(#paint1_linear_3195_64685)"/>
<circle cx="295" cy="267" r="209.5" stroke="url(#paint2_linear_3195_64685)" stroke-opacity="0.2"/>
<path fill-rule="evenodd" clip-rule="evenodd" d="M308.302 85.93C306.421 90.0554 305.163 101.654 306.595 101.654C307.881 101.654 309.948 95.3919 311.127 87.9296C312.007 82.3641 310.433 81.251 308.302 85.93ZM330.269 98.8971C326.289 103.744 321.219 111.756 320.392 114.502C319.519 117.396 319.544 117.391 323.258 113.918C327.919 109.559 332.949 101.186 332.437 98.6366C332.096 96.9372 331.854 96.9664 330.269 98.8971ZM296.306 132.898C295.598 134.741 295.385 139.096 295.804 143.118C296.281 147.676 295.896 153.187 294.706 158.886C292.84 167.818 288.595 181.889 287.13 183.998C286.684 184.64 285.408 187.634 284.293 190.651L282.268 196.134L276.208 195.586C270.973 195.113 270.546 195.222 273.069 196.38C285.036 201.873 291.193 205.315 295.222 208.764C300.29 213.102 304.368 220.995 305.352 228.378C306.207 234.787 301.468 248.794 293.914 262.18C290.629 268.002 287.137 274.342 286.157 276.27C285.176 278.197 281.087 284.791 277.072 290.923C265.035 309.303 248.528 323.204 228.353 331.955C211.801 339.135 208.093 342.82 223.11 337.168C242.834 329.743 259.372 318.337 271.681 303.672C283.202 289.943 301.921 256.751 307.41 240.313C309.741 233.336 309.841 220.597 307.601 216.264C305.309 211.833 297.771 205.215 290.056 200.861L283.643 197.242L287.118 190.356C293.355 178 296.71 165.595 300.649 140.338C301.702 133.574 303.769 138.084 304.369 148.459C304.907 157.754 304.862 157.957 302.427 157.184C300.757 156.654 299.902 156.901 299.839 157.931C299.789 158.777 299.622 162.623 299.469 166.478C299.316 170.332 298.743 174.491 298.196 175.721C297.499 177.285 297.598 177.711 298.523 177.139C300.522 175.903 302.248 168.415 301.451 164.432C300.398 159.166 303.632 160.838 305.578 166.568C308.61 175.488 304.916 190.252 298.036 196.714C295.454 199.137 295.218 199.679 297.013 199.055C300.933 197.691 303.665 194.758 306.138 189.254C308.38 184.27 308.543 184.149 309.297 186.925C311.576 195.326 315.739 199.811 321.172 199.72C323.496 199.68 323.336 199.44 320.031 198.003C314.896 195.772 311.41 187.872 310.696 176.851C310.155 168.508 311.766 161.695 313.124 166.579C313.465 167.808 314.076 170.778 314.481 173.18C314.919 175.776 316.144 178.041 317.503 178.768C320.265 180.247 320.432 179.011 317.949 175.467C316.938 174.023 315.808 169.923 315.44 166.356C314.876 160.895 314.445 159.957 312.705 160.412C310.973 160.865 310.423 159.72 309.313 153.346C308.004 145.827 308.541 139.03 310.444 139.03C310.984 139.03 312.275 142.841 313.313 147.498C316.411 161.391 319.656 170.001 324.733 177.796C327.373 181.85 331.238 189.715 333.32 195.276C337.442 206.274 339.567 210.746 340.315 209.997C341.082 209.23 332.833 185.578 331.082 183.523C328.078 180 322.063 168.416 319.761 161.723C318.357 157.643 317.453 151.942 317.453 147.168C317.453 137.587 316.43 132.011 314.679 132.054C313.956 132.072 311.823 133.658 309.939 135.577L306.512 139.068L305.031 135.545C303.002 130.719 300.413 131.086 299.002 136.402L297.839 140.782L297.717 137.055C297.652 135.005 298.122 133.003 298.765 132.606C300.29 131.663 300.27 129.686 298.736 129.686C298.078 129.686 296.984 131.13 296.306 132.898ZM157.437 133.326C157.437 134.07 156.242 134.402 154.652 134.097C152.121 133.614 151.862 133.97 151.806 137.988C151.738 142.864 150.249 146.377 146.487 150.529C140.267 157.392 132.291 158.46 113.923 154.891C104.013 152.965 101.656 152.868 95.819 154.151C86.6876 156.157 82.5833 158.918 77.27 166.633C72.9274 172.938 72.7569 173.549 72.7569 182.802V192.417L67.2743 194.364C56.7015 198.119 51.3416 207.064 52.7105 218.666C53.6846 226.922 56.9281 232.122 69.7388 245.968C84.3037 261.714 86.0616 267.436 77.6636 271.779L73.9763 273.685L76.8706 274.778C80.9095 276.302 90.6763 274.822 95.2561 271.991C97.3666 270.688 99.8697 268.12 100.817 266.287C102.771 262.508 103.14 252.834 101.373 251.742C99.1467 250.366 100.22 248.822 103.417 248.804C107.333 248.782 111.54 246.547 107.797 246.477C102.982 246.389 95.9697 242.184 94.4291 238.465C92.266 233.242 95.1171 228.966 100.761 228.966C104.894 228.966 105.345 229.373 111.099 238.31C113.272 241.687 114.432 242.398 117.772 242.398C121.517 242.398 121.801 242.142 121.659 238.894C121.573 236.966 119.941 231.973 118.031 227.798C111.224 212.918 110.669 205.115 115.764 195.912C119.645 188.9 124.103 186.865 138.28 185.634C153.264 184.333 160.259 181.594 166.843 174.45C174.487 166.158 176.5 158.994 173.816 149.635C172.22 144.074 167.151 137.113 162.685 134.353C158.362 131.682 157.437 131.501 157.437 133.326ZM313.61 137.862C313.947 139.146 314.423 140.198 314.67 140.198C314.915 140.198 315.117 139.146 315.117 137.862C315.117 136.577 314.64 135.526 314.059 135.526C313.476 135.526 313.275 136.577 313.61 137.862ZM306.596 158.499C306.184 159.165 306.602 160.707 307.525 161.926C309.329 164.31 309.659 163.199 308.228 159.547C307.718 158.244 307.027 157.801 306.596 158.499ZM425.964 172.917C416.617 174.497 406.425 180.877 403.162 187.187C398.983 195.269 401.695 207.186 408.557 210.886C415.186 214.461 419.598 216.118 422.492 216.118C424.178 216.118 426.726 216.936 428.155 217.937C431.013 219.939 433.603 219.153 432.618 216.584C432.272 215.684 432.63 214.943 433.413 214.933C434.197 214.925 435.946 214.62 437.304 214.256C440.42 213.42 442.295 217.198 439.532 218.744C437.057 220.128 438.416 221.958 441.918 221.958C443.488 221.958 446.734 223.009 449.132 224.294C452.344 226.015 455.722 226.63 461.975 226.63C466.643 226.63 470.461 226.849 470.461 227.117C470.461 227.384 469.41 230.056 468.125 233.054C466.84 236.051 465.789 239.511 465.789 240.743C465.789 243.429 466.931 243.397 452.572 241.114C446.112 240.087 439.636 238.467 438.182 237.514C436.727 236.56 434.59 235.982 433.434 236.228C431.787 236.579 432.17 237.119 435.201 238.728C440.029 241.289 439.909 245.13 434.929 247.51C430.124 249.806 427.782 248.027 427.992 242.241C428.17 237.356 427.037 236.019 422.701 235.991C421.167 235.982 419.286 235.12 418.522 234.076C416.88 231.83 411.296 231.563 409.345 233.638C408.261 234.79 408.649 234.978 411.185 234.53C414.811 233.888 415.078 234.776 413.056 240.764C411.222 246.188 411.329 246.16 407.196 242.312C403.376 238.756 403.704 240.51 407.688 244.943C409.636 247.109 410 249.367 410.142 260.159C410.288 271.209 410.685 273.563 413.243 278.532C416.815 285.469 422.012 288.493 431.909 289.39C435.768 289.74 438.925 290.19 438.925 290.39C438.925 290.589 437.301 293.158 435.318 296.096C432.305 300.562 431.777 302.349 432.106 306.959C432.5 312.468 432.494 312.479 428.544 312.856C421.51 313.528 419.069 312.311 419.069 308.134C419.069 305.478 418.71 304.777 417.81 305.677C415.572 307.915 417.08 313.439 420.441 315.317C422.955 316.722 424.718 316.826 429.472 315.853C435.16 314.687 435.499 314.767 438.585 317.988C443.891 323.527 451.899 328.004 463.101 331.696C477.247 336.357 488.536 337.98 502.249 337.324C512.081 336.854 514.636 336.27 521.355 332.962C528.118 329.633 529.416 328.455 531.49 323.767C533.613 318.966 533.79 316.893 533.144 304.339C531.492 272.276 521.865 236.117 512.577 227.096C509.449 224.058 508.974 223.126 510.557 223.126C514.331 223.126 519.365 219.68 523.496 214.27C538.372 194.788 517.612 167.399 495.562 177.416C490.244 179.833 483.698 186.716 482.615 191.028C481.892 193.908 481.847 193.891 475.808 188.373C468.116 181.342 457.011 175.701 446.517 173.494C437.635 171.626 434.17 171.528 425.964 172.917ZM498.842 178.865C492.881 180.589 493.399 181.927 499.542 180.669C504.418 179.67 505.847 179.869 510.705 182.221C522.765 188.059 524.099 204.76 513.388 215.826C509.425 219.921 510.207 220.861 514.876 217.614C530.062 207.055 528.012 186.46 511.07 179.382C506.254 177.369 504.301 177.286 498.842 178.865ZM154.015 188.583C150.445 192.383 152.02 195.033 155.758 191.521C158.028 189.389 159.329 189.07 163.228 189.694C166.861 190.276 167.949 190.071 167.949 188.809C167.949 184.754 157.765 184.59 154.015 188.583ZM133.708 193.254C127.992 195.328 124.272 198.603 125.846 200.178C126.624 200.956 127.704 200.748 129.085 199.553C131.779 197.222 138.193 195.094 142.525 195.094C144.743 195.094 145.783 194.579 145.472 193.634C144.789 191.551 138.924 191.362 133.708 193.254ZM266.668 203.562C264.402 218.252 257.315 235.365 247.979 248.688C240.943 258.731 239.873 261.297 244.553 256.909C255.444 246.698 269.565 216.155 269.565 202.809C269.565 197 267.601 197.51 266.668 203.562ZM165.613 206.19C165.613 209.723 165.169 212.614 164.626 212.614C163.335 212.614 160.323 209.077 159.403 206.482C159.004 205.357 158.094 204.438 157.381 204.438C155.903 204.438 157.096 211.79 158.671 212.394C161.827 213.603 169.411 220.158 170.552 222.663C172.165 226.202 171.074 227.186 164.35 228.261C159.623 229.017 156.916 231.302 160.747 231.302C163.577 231.302 164.447 233.458 164.438 240.449C164.427 249.437 162.311 254.78 156.429 260.664C150.769 266.326 142.371 269.846 134.518 269.846C132.424 269.846 130.335 270.454 129.874 271.198C128.682 273.129 144.384 271.544 150.434 269.124C153.01 268.092 157.428 264.682 160.248 261.543C166.302 254.811 168.561 247.324 167.632 237.076C167.027 230.403 167.078 230.259 170.418 229.094C175.486 227.328 175.779 224.823 171.613 218.911C168.495 214.489 167.949 212.672 167.949 206.74C167.949 202.869 167.429 199.766 166.781 199.766C166.138 199.766 165.613 202.656 165.613 206.19ZM322.142 202.728C322.152 203.347 322.978 206.206 323.978 209.082C324.979 211.956 325.345 214.46 324.79 214.645C317.926 216.933 311.855 223.762 314.416 226.314C316.158 228.051 331.926 227.256 337.373 225.157C342.794 223.068 352.41 214.478 350.957 213.024C350.517 212.583 348.185 213.798 345.777 215.722C341.287 219.307 335.132 221.958 331.295 221.958C329.811 221.958 329.133 221.106 329.133 219.245C329.133 215.546 325.694 205.411 323.727 203.312C322.846 202.37 322.133 202.107 322.142 202.728ZM149.125 206.413C149.051 206.932 148.919 209.723 148.833 212.614C148.694 217.272 148.346 217.916 145.774 218.278C143.636 218.58 142.03 217.678 139.667 214.848C136.106 210.581 133.888 210.952 136.759 215.333C141.198 222.109 146.004 223.879 149.762 220.123C151.832 218.052 152.343 207.373 150.429 206.19C149.786 205.792 149.2 205.893 149.125 206.413ZM354.829 219.184C354.829 223.663 361.492 246.967 369.133 269.209C374.417 284.593 375.831 287.491 380.476 292.477C388.193 300.76 401.064 308.544 406.568 308.254C408.904 308.131 408.928 308.065 406.84 307.535C401.68 306.226 391.336 299.322 384.578 292.676L377.396 285.614L369.095 259.918C364.53 245.785 359.727 230.336 358.424 225.588C355.74 215.81 354.829 214.188 354.829 219.184ZM320.081 219.609C314.48 223.023 315.468 224.284 321.54 221.472C326.647 219.107 328.305 217.281 325.337 217.29C324.534 217.293 322.169 218.336 320.081 219.609ZM414.397 227.546C414.397 228.523 423.088 232.47 425.239 232.47C426.871 232.47 426.046 230.2 424.033 229.144C420.682 227.389 414.397 226.346 414.397 227.546ZM312.782 233.151C312.784 247.017 326.226 289.64 338.312 314.108C343.937 325.497 357.543 342.568 371.975 356.343C379.836 363.846 381.693 365.153 381.693 363.185C381.693 362.412 376.53 356.468 370.22 349.976C354.419 333.722 348.842 325.786 338.943 305.47C330.088 287.296 319.343 256.487 315.735 238.927C313.527 228.181 312.781 226.722 312.782 233.151ZM432.209 230.958C426.995 231.963 429.733 233.638 436.589 233.638C444.073 233.638 445.973 232.069 439.947 230.864C437.939 230.462 435.969 230.205 435.567 230.292C435.165 230.38 433.655 230.679 432.209 230.958ZM415.565 238.378C415.565 239.701 416.09 240.459 416.733 240.062C417.375 239.664 417.901 238.583 417.901 237.657C417.901 236.73 417.375 235.974 416.733 235.974C416.09 235.974 415.565 237.056 415.565 238.378ZM417.132 243.567C413.076 247.865 412.548 248.941 413.931 250.088C414.921 250.91 417.486 251.208 420.312 250.828C423.608 250.387 424.901 250.605 424.589 251.552C424.344 252.299 421.752 253.067 418.829 253.26C413.756 253.594 413.486 253.794 412.855 257.677C411.962 263.186 413.733 273.31 416.56 278.852C419.458 284.53 423.261 286.354 433.707 287.074C441.232 287.592 442.22 287.39 445.45 284.672C449.624 281.161 459.63 275.686 461.875 275.686C462.885 275.686 463.453 274.282 463.453 271.779C463.453 269.37 464.338 267.07 465.761 265.782C467.03 264.634 467.788 263.238 467.444 262.681C467.1 262.125 469.005 261.67 471.677 261.67C475.644 261.67 477.262 260.942 480.506 257.698C485.082 253.122 485.648 248.825 482.141 245.318C479.312 242.489 478.742 242.454 475.265 244.889C472.959 246.504 471.618 246.6 466.536 245.513C463.234 244.806 457.642 243.918 454.109 243.54C450.576 243.16 446.581 242.581 445.233 242.249C443.343 241.787 442.453 242.437 441.358 245.084C439.009 250.753 432.353 252.734 427.372 249.247C425.083 247.643 424.741 246.611 425.249 242.823C426.079 236.639 423.441 236.881 417.132 243.567ZM149.261 246.931C149.261 248.889 152.667 251.158 155.608 251.158C156.613 251.158 157.437 250.716 157.437 250.178C157.437 249.347 155.798 248.308 150.137 245.55C149.656 245.315 149.261 245.937 149.261 246.931ZM240.949 265.755C234.709 271.094 212.422 282.142 203.094 284.52C197.201 286.022 192.93 286.254 183.031 285.607C176.116 285.156 169.836 285.169 169.078 285.638C163.35 289.177 194.57 289.774 206.531 286.354C220.244 282.432 237.167 273.033 244.379 265.332C248.931 260.472 246.818 260.733 240.949 265.755ZM427.787 266.411C427.338 267.135 425.562 267.325 423.491 266.871C420.806 266.281 420.086 266.475 420.488 267.679C421.321 270.176 430.034 269.777 430.527 267.218C430.956 264.99 429.017 264.419 427.787 266.411ZM468.125 267.51C466.84 268.794 465.789 270.529 465.789 271.364C465.789 273.306 468.153 275.686 470.084 275.686C472.429 275.686 475.423 270.264 474.568 267.567C473.605 264.535 471.122 264.512 468.125 267.51ZM151.597 283.727C151.597 284.536 153.005 287.602 154.727 290.539L157.857 295.88L155.181 298.047C151.583 300.961 142.242 300.888 133.493 297.878C125.354 295.078 121.893 294.754 125.348 297.117C129.602 300.024 142.652 303.718 148.611 303.7C159.06 303.67 162.924 299.646 159.783 292.064C158.221 288.291 151.597 281.545 151.597 283.727ZM113.15 301.691C108.327 304.156 99.5566 316.908 95.6543 327.128C81.4585 364.301 80.0744 406.518 92.0814 436.024C97.0291 448.179 102.402 456.335 110.133 463.422C122.567 474.819 124.966 475.998 135.742 475.998C140.93 475.998 146.663 475.582 148.485 475.074C151.87 474.13 163.277 464.297 163.277 462.323C163.277 461.722 164.02 460.488 164.928 459.579C166.353 458.155 166.526 460.635 166.189 477.553C165.803 496.848 167.187 507.626 168.137 492.72C168.854 481.457 171.129 478.982 185.531 473.81C198.893 469.011 206.223 468.385 209.297 471.781C210.406 473.006 211.982 478.077 212.84 483.169C214.286 491.767 214.393 491.986 214.526 486.642C214.885 472.292 209.825 443.44 202.419 417.598C196.196 395.886 192.999 381.976 191.282 369.149C189.493 355.781 187.885 353.387 187.84 364.019L187.805 372.346L183.178 373.52L178.552 374.695L180.752 370.38C186.087 359.924 188.826 336.189 185.06 333.062C184.073 332.244 183.208 327.867 182.746 321.374C182.075 311.912 180.272 303.853 179.092 305.034C178.831 305.293 179.172 309.448 179.847 314.265C181.081 323.055 179.58 336.422 177.359 336.422C176.844 336.422 176.066 334.187 175.631 331.458C174.52 324.496 172.309 321.658 167.261 320.711C162.378 319.795 160.988 321.005 160.958 326.202C160.949 327.969 160.546 329.352 160.065 329.276C156.811 328.762 156.269 329.771 156.269 336.353C156.269 340.17 155.785 343.591 155.193 343.956C154.602 344.322 152.496 341.786 150.514 338.322C148.532 334.858 146.038 331.305 144.972 330.426C143.907 329.548 141.288 326.105 139.153 322.775C135.377 316.883 133.246 314.671 132.28 315.637C132.02 315.897 133.561 318.716 135.705 321.899C139.826 328.018 150.429 347.167 150.429 348.489C150.429 348.918 149.807 349.139 149.047 348.978C148.287 348.818 146.955 350.107 146.089 351.844C144.214 355.6 145.64 359.883 151.693 368.681C155.804 374.656 157.197 381.847 155.232 386.938C154.197 389.615 153.293 390.15 149.797 390.15C147.49 390.15 144.537 390.72 143.234 391.418C139.86 393.224 136.833 400.928 135.245 411.758C134.492 416.897 132.914 423.302 131.739 425.991C130.12 429.697 129.99 430.732 131.201 430.267C133.892 429.234 137.582 420.091 138.549 412.059C140.076 399.373 145.234 394.151 155.798 394.594C163.236 394.905 175.452 398.523 178.559 401.334C185.637 407.74 173.919 444.014 159.794 459.421C151.451 468.521 146.072 471.24 136.413 471.237C130.414 471.234 127.526 470.562 122.647 468.027C109.584 461.241 99.4865 448.241 93.455 430.446C88.1651 414.838 86.9084 404.613 87.7423 383.979C89.1416 349.36 98.537 320.197 113.505 304.01C117.365 299.834 117.323 299.557 113.15 301.691ZM193.4 319.989C191.467 329.481 191.509 331.75 193.62 331.75C194.802 331.75 196.37 318.702 195.794 313.664C195.514 311.208 194.812 313.063 193.4 319.989ZM404.329 315.926C403.438 318.249 404.757 320.07 407.333 320.07C409.574 320.07 411.373 317.118 410.243 315.292C409.205 313.611 405.046 314.057 404.329 315.926ZM126.959 327.954C129.407 331.648 132.498 336.807 133.827 339.42C135.155 342.033 137.156 344.923 138.273 345.844C140.14 347.382 140.238 347.25 139.48 344.209C138.485 340.213 133.997 332.933 128.381 326.202C122.482 319.134 121.728 320.064 126.959 327.954ZM437.836 324.593C435.914 328.186 436.34 329.611 439.217 329.203C441.114 328.934 441.845 328.045 441.845 326.007C441.845 322.402 439.459 321.561 437.836 324.593ZM164.959 338.758C165.772 354.597 164.524 355.76 162.137 341.39C160.035 328.731 158.024 329.013 159.261 341.792C160.504 354.64 160.565 361.716 159.44 362.839C158.379 363.901 151.874 357.822 150.947 354.904C150.576 353.733 149.782 352.774 149.183 352.774C146.752 352.774 148.38 358.298 153.349 366.912C158.642 376.089 159.589 380.4 157.512 385.864C156.54 388.42 156.766 388.805 159.556 389.336C168.969 391.128 183.106 398.83 184.466 402.908C184.864 404.101 185.817 404.051 189.145 402.661L193.324 400.915L191.248 391.349C190.106 386.088 188.884 381.496 188.533 381.144C187.412 380.024 172.621 386.929 172.621 388.573C172.621 389.441 172.095 390.15 171.453 390.15C168.399 390.15 172.156 378.311 177.275 371.803C181.134 366.896 184.317 354.675 184.163 345.351L184.026 337.006L183.07 342.714C181.954 349.369 179.629 352.727 179.629 347.682C179.629 345.831 179.131 344.767 178.461 345.182C177.818 345.579 177.293 347.217 177.293 348.823C177.293 354.715 175.28 350.285 174.588 342.869C173.755 333.951 171.563 325.91 169.964 325.91C169.348 325.91 169.195 327.092 169.625 328.538C170.054 329.984 170.62 335.633 170.883 341.094C171.202 347.711 171.034 349.854 170.377 347.518C169.836 345.59 169.331 341.859 169.255 339.224C169.106 334.09 167.173 327.232 165.336 325.326C164.613 324.576 164.479 329.38 164.959 338.758ZM409.398 328.581C408.41 331.157 410.321 333.158 413.361 332.727C417.409 332.155 417.187 327.782 413.086 327.307C411.272 327.096 409.768 327.616 409.398 328.581ZM420.237 334.122C420.237 337.231 423.44 338.391 425.722 336.11C428.013 333.817 426.765 331.75 423.088 331.75C421.001 331.75 420.237 332.385 420.237 334.122ZM444.998 342.495C444.228 343.266 443.597 345.631 443.597 347.751C443.597 351.219 443.259 351.606 440.235 351.606C436.346 351.606 433.891 353.974 434.942 356.713C435.465 358.077 435.012 358.614 433.335 358.614C430.882 358.614 429.069 361.513 430.288 363.484C430.681 364.12 429.834 365.458 428.408 366.457C426.125 368.057 425.878 369.051 426.351 374.757C426.873 381.057 427.121 381.454 435.153 388.907C445.647 398.642 448.238 403.291 443.818 404.446C441.304 405.103 434.253 415.347 434.253 418.34C434.253 421.899 438.427 423.257 444.597 421.704C455.894 418.863 472.797 407.326 472.797 402.459C472.797 400.523 472.613 400.513 469.871 402.31C466.969 404.211 466.916 404.182 463.447 398.712C461.523 395.678 459.949 392.424 459.949 391.479C459.949 390.534 459.626 390.082 459.234 390.475C458.24 391.469 461.882 401.784 464.087 404.222C465.754 406.062 465.438 406.56 460.139 410.449C456.972 412.775 453.661 414.675 452.784 414.672C451.796 414.668 450.11 411.003 448.352 405.036C445.702 396.041 444.989 394.898 437.548 387.704C432.497 382.822 429.581 379.07 429.581 377.457C429.581 375.002 429.686 374.981 432.537 376.848C434.163 377.915 435.872 378.395 436.333 377.916C436.796 377.438 436.122 376.338 434.837 375.472C428.554 371.241 427.83 370.449 429.082 369.177C429.986 368.259 431.577 368.422 434.784 369.762C440.929 372.331 442.41 370.271 436.981 366.708C434.602 365.147 432.446 363.213 432.189 362.411C431.391 359.915 435.063 359.502 439.469 361.593C445.199 364.312 446.072 362.813 441.187 358.637C437.409 355.406 437.332 355.202 439.885 355.157C441.376 355.131 444.847 356.428 447.596 358.039C455.922 362.919 457.946 370.351 454.589 383.724C454.177 385.367 454.361 386.646 455.012 386.646C456.523 386.646 458.781 377.567 458.781 371.493C458.781 368.867 457.533 363.713 456.009 360.039C454.485 356.364 452.578 351.255 451.769 348.686C449.484 341.414 447.705 339.789 444.998 342.495ZM493.904 355.133C510.235 380.713 517.184 401.439 518.048 427.137C518.544 441.91 518.331 444.502 516.067 451.308C512.909 460.795 506.517 467.891 500.03 469.108C493.702 470.294 484.171 467.993 473.374 462.672C465.983 459.029 462.188 456.132 455.27 448.853C450.455 443.788 444.021 436.05 440.969 431.657C433.449 420.832 433.634 425.496 441.18 436.99C448.307 447.846 461.77 460.776 471.053 465.679C478.889 469.819 490.201 473.078 496.733 473.078C516.392 473.078 525.978 446.774 519.627 410.259C515.905 388.86 508.059 370.07 496.16 354.062C485.696 339.984 484.573 340.518 493.904 355.133ZM446.155 348.844C446.394 351.662 447.385 353.665 449.095 354.793C451.636 356.473 451.656 356.441 450.46 352.59C449.793 350.443 448.966 347.765 448.622 346.642C447.497 342.967 445.783 344.497 446.155 348.844ZM211.324 354.242C211.017 369.504 214.287 386.204 222.818 412.926C230.32 436.427 233.395 448.447 236.04 464.61C238.595 480.235 240.365 484.44 240.365 474.889C240.365 465.677 235.761 445.464 227.892 420.132C217.45 386.517 216.392 382.338 214.229 366.206C213.195 358.497 212.155 350.876 211.916 349.27C211.678 347.664 211.411 349.9 211.324 354.242ZM156.286 353.581C156.297 354.743 156.814 356.482 157.437 357.446C158.322 358.816 158.573 358.513 158.587 356.054C158.597 354.326 158.079 352.587 157.437 352.19C156.794 351.792 156.277 352.419 156.286 353.581ZM385.384 375.55C375.789 420.27 374.945 424.701 372.934 440.958C371.051 456.173 370.648 481.124 372.349 477.166C372.901 475.881 373.39 470.854 373.435 465.995C373.568 451.652 376.345 433.027 384.156 394.081C386.106 384.359 387.518 374.635 387.295 372.473C386.932 368.974 386.722 369.311 385.384 375.55ZM441.365 411.183C439.175 414.397 437.628 417.274 437.93 417.575C438.655 418.301 447.101 408.165 447.101 406.572C447.101 404.011 445.225 405.52 441.365 411.183ZM476.301 407.58C476.301 411.484 488.846 426.575 494.694 429.704C498.633 431.812 498.994 429.121 495.082 426.811C491.217 424.527 485.271 417.763 480.568 410.298C477.09 404.779 476.301 404.277 476.301 407.58ZM189.663 412.992C184.066 415.617 183.879 415.874 181.881 423.648C180.755 428.029 179.433 432.625 178.944 433.861C178.193 435.758 178.405 435.954 180.302 435.121C181.537 434.578 186.491 432.813 191.309 431.2C196.127 429.586 200.265 428.122 200.505 427.947C201.063 427.537 197.005 411.996 196.088 411.03C195.708 410.63 192.817 411.513 189.663 412.992ZM195.397 440.834C189.361 442.339 175.939 448.283 172.304 451.061C170.047 452.787 167.722 464.119 168.958 467.379C169.62 469.126 170.704 468.921 179.002 465.474C184.117 463.349 192.659 460.656 197.982 459.489C208.89 457.098 208.682 457.439 206.063 446.214C204.381 439.004 203.838 438.73 195.397 440.834ZM115.072 473.783C114.604 474.251 114.221 476.04 114.221 477.755C114.221 479.472 112.872 485.163 111.223 490.403C107.998 500.648 107.809 506.527 110.717 506.121C111.68 505.987 115.622 505.05 119.477 504.04C124.47 502.731 128.96 502.413 135.092 502.936C145.162 503.796 145.719 501.995 136.008 499.979C131.452 499.033 127.537 499.042 121.276 500.014C110.802 501.639 109.917 500.804 113.23 492.423C117.127 482.565 117.928 478.944 116.899 475.855C116.363 474.247 115.541 473.315 115.072 473.783ZM476.854 482.978C475.697 496.867 477.46 499.808 479.321 487.094C480.761 477.259 480.565 473.078 478.663 473.078C478.122 473.078 477.308 477.532 476.854 482.978Z" fill="white"/>
<defs>
<linearGradient id="paint0_linear_3195_64685" x1="295" y1="-272.5" x2="295" y2="405" gradientUnits="userSpaceOnUse">
<stop stop-color="#182444"/>
<stop offset="1" stop-color="#182444" stop-opacity="0"/>
</linearGradient>
<linearGradient id="paint1_linear_3195_64685" x1="295" y1="-157.326" x2="295" y2="375.539" gradientUnits="userSpaceOnUse">
<stop stop-color="#182444"/>
<stop offset="1" stop-color="#182444" stop-opacity="0"/>
</linearGradient>
<linearGradient id="paint2_linear_3195_64685" x1="295" y1="57" x2="295" y2="477" gradientUnits="userSpaceOnUse">
<stop stop-color="#2463EB"/>
<stop offset="1" stop-color="#2463EB" stop-opacity="0"/>
</linearGradient>
</defs>
</svg>
