<svg width="585" height="534" viewBox="0 0 585 534" fill="none" xmlns="http://www.w3.org/2000/svg">
<circle cx="295" cy="267" r="267" fill="url(#paint0_linear_3195_64740)"/>
<circle cx="295" cy="267" r="210" fill="url(#paint1_linear_3195_64740)"/>
<circle cx="295" cy="267" r="209.5" stroke="url(#paint2_linear_3195_64740)" stroke-opacity="0.2"/>
<path fill-rule="evenodd" clip-rule="evenodd" d="M320.452 104.319C295.771 106.573 274.776 115.09 257.699 129.776L253.805 133.125L252.096 131.801C249.019 129.418 246.399 128.905 243.024 130.026C241.396 130.566 239.765 131.486 239.4 132.07C238.772 133.075 238.636 133.055 236.847 131.691C234.404 129.83 231.442 129.378 227.961 130.335C225.79 130.933 224.246 132.023 220.973 135.276L216.771 139.45L212.178 136.571C201.751 130.036 188.577 124.794 172.383 120.739C155.711 116.563 144.262 115.262 140.158 117.078L138.399 117.856L139.864 118.214C140.671 118.41 144.628 118.856 148.659 119.205C164.23 120.551 184.589 125.935 196.283 131.798C200.228 133.776 207.902 138.474 207.226 138.497C207.029 138.504 204.654 137.482 201.949 136.225C192.964 132.053 179.251 128.015 166.835 125.887C159.263 124.589 132.675 124.058 121.771 124.987C112.071 125.813 103.991 127.378 100.83 129.043L98.5285 130.256L100.581 130.27C101.709 130.278 106.986 129.76 112.307 129.119C139.807 125.806 167.416 127.789 187.063 134.489C191.942 136.153 201.91 140.997 204.653 143.036C205.761 143.86 205.728 143.886 204.067 143.503C180.952 138.179 154.144 136.737 128.138 139.418C117.248 140.541 103.702 142.871 98.8217 144.461C94.5327 145.858 89.7108 148.144 89.1544 149.044C88.4743 150.143 89.8304 149.972 111.721 146.204C128.266 143.355 132.212 143.015 148.952 142.997C160.79 142.984 166.706 143.237 172.405 144.002C191.97 146.625 209.326 151.442 222.012 157.768C228.375 160.94 228.772 161.246 230.368 164.206C232.101 167.419 238.059 188.926 241.266 203.54C244.883 220.025 247.346 236.439 248.606 252.459C249.589 264.957 250.41 270.328 251.338 270.328C251.653 270.328 252.294 269.413 252.762 268.296C255.54 261.651 250.972 223.847 243.945 195.338C242.117 187.921 235.703 162.843 235.075 160.657C234.847 159.863 237.358 158.384 247.572 153.298C254.602 149.798 263.52 145.81 267.39 144.438C287.821 137.191 312.119 132.134 335.577 130.248C345.099 129.482 364.96 130.264 374.101 131.764C380.045 132.74 389.308 132.954 388.782 132.103C388.04 130.903 381.326 128.981 374.101 127.901C364.145 126.413 345.092 125.855 333.51 126.713C324.081 127.412 300.123 130.67 289.52 132.695C281.122 134.3 273.391 136.302 265.969 138.793C262.607 139.921 259.754 140.742 259.629 140.617C259.114 140.103 270.804 132.857 277.796 129.355C286.617 124.939 290.873 123.213 301.983 119.548C321.235 113.196 335.443 111.6 360.762 112.945C370.451 113.459 372.304 113.115 368.091 111.58C358.162 107.964 336.44 107.721 317.924 111.022C300.329 114.157 281.116 121.029 267.097 129.201C262.804 131.703 264.327 129.975 269.614 126.346C277.496 120.935 283.309 118.014 295.005 113.589C304.258 110.088 308.729 108.756 316.602 107.154C329.156 104.6 330.824 103.371 320.452 104.319ZM259.474 112.718C256.01 113.163 252.009 115.152 248.67 118.09C245.608 120.783 242.772 125.205 243.272 126.506C243.764 127.788 244.68 127.568 245.135 126.06C246.66 120.999 256.71 116.099 265.113 116.318C270.164 116.451 271.603 115.314 268.416 113.706C266.366 112.672 262.851 112.284 259.474 112.718ZM241.803 133.772C240.096 135.155 240.59 135.82 242.721 135.011C243.593 134.68 245.41 134.4 246.76 134.39C249.045 134.373 249.135 134.312 248.076 133.511C246.489 132.312 243.45 132.438 241.803 133.772ZM391.308 142.459C390.452 143.993 389.044 147.62 388.18 150.52C387.315 153.42 385.316 159.674 383.738 164.419C377.041 184.559 371.455 212.581 368.232 242.207C367.06 252.981 366.351 274.757 367.19 274.24C367.566 274.007 367.899 275.404 368.085 278C368.443 283.001 369.216 284.101 370.554 281.516C371.213 280.242 371.768 276.233 372.366 268.413C373.869 248.811 375.955 231.262 379.731 206.469C382.71 186.904 384.022 180.7 389.107 162.119C392.544 149.561 393.179 146.536 393.035 143.405L392.863 139.671L391.308 142.459ZM84.5547 154.767C85.1574 158.94 86.3981 162.96 97.8003 197.681C104.097 216.853 111.673 240.713 114.637 250.701C117.602 260.69 121.471 273.736 123.237 279.693C126.388 290.327 127.818 293.447 128.819 291.872C130.489 289.242 126.497 269.422 120.112 248.651C117.865 241.341 109.094 216.371 103.34 200.903C100.584 193.492 96.1856 180.96 93.5659 173.053C89.1497 159.722 86.0797 152.57 84.7751 152.57C84.479 152.57 84.38 153.559 84.5547 154.767ZM317.227 154.105C313.035 154.556 306.652 155.448 303.043 156.089C292.548 157.953 281.96 161.666 282.495 163.294C282.903 164.539 286.176 164.385 291.502 162.87C303.279 159.521 324.186 156.744 342.329 156.121C356.235 155.643 359.467 154.996 353.9 153.803C349.73 152.909 326.587 153.1 317.227 154.105ZM322.556 169.619C313.718 170.55 302.276 173.475 302.276 174.803C302.276 175.063 302.644 175.58 303.095 175.953C303.718 176.471 304.866 176.42 307.932 175.739C316.084 173.927 333.868 171.903 341.717 171.895C351.056 171.883 353.9 170.844 348.202 169.522C345.459 168.886 328.92 168.948 322.556 169.619ZM223.365 175.047C223.195 175.488 223.634 177.399 224.339 179.295C232.526 201.308 236.75 218.398 238.658 237.227C239.148 242.06 239.855 247.86 240.23 250.116C240.86 253.904 240.944 254.067 241.338 252.246C241.803 250.094 241.123 236.971 240.088 228.146C238.286 212.774 232.033 189.284 226.87 178.494C224.877 174.331 223.979 173.447 223.365 175.047ZM318.693 214.13C311.14 215.085 303.118 216.559 301.25 217.335C299.386 218.11 299.342 218.213 299.219 222.111C299.067 226.928 299.244 231.486 299.652 233.272C300.017 234.869 301.397 234.954 307.26 233.738C316.294 231.866 330.104 230.44 337.912 230.574C344.073 230.68 345.875 230.53 346.549 229.856C348.909 227.498 348.691 217.418 346.228 214.992C345.026 213.808 344.999 213.807 344.164 214.93C343.576 215.72 343.319 217.656 343.319 221.288V226.508L338.378 226.302C334.501 226.14 333.08 225.831 331.782 224.87C329.71 223.336 327.393 219.989 327.614 218.851C327.712 218.347 329.23 217.608 331.287 217.064C333.216 216.554 334.799 215.872 334.805 215.55C334.841 213.798 326.872 213.096 318.693 214.13ZM160.093 262.208C155.071 262.845 149.308 264.274 148.262 265.141C147.176 266.042 147.295 267.948 148.466 268.397C149.006 268.604 151.446 268.345 153.89 267.822L158.334 266.872L161.422 268.355C164.941 270.045 166.962 272.852 165.569 274.115C165.137 274.507 163.07 275.129 160.978 275.498C156.829 276.228 154.33 277.687 154.052 279.54C153.875 280.718 153.906 280.719 158.156 279.712C160.511 279.154 165.839 278.505 169.995 278.271C178.289 277.803 178.899 277.68 179.399 276.378C179.889 275.101 178.012 264.424 177.023 262.858C176.242 261.622 175.814 261.545 170.193 261.614C166.895 261.655 162.35 261.922 160.093 262.208ZM226.389 272.42C224.084 274.723 225.621 276.938 236.434 286.895C241.528 291.586 247.536 297.29 249.784 299.573C253.957 303.807 255.957 304.753 255.957 302.494C255.957 300.506 254.287 298.653 242.812 287.901C236.819 282.286 231.917 277.486 231.917 277.233C231.917 275.324 239.871 279.847 248.786 286.827C253.214 290.293 258.111 293.827 259.669 294.68L262.5 296.23L261.63 294.557C259.131 289.751 252.285 283.428 243.088 277.432C234.808 272.035 228.63 270.181 226.389 272.42ZM222.096 283.604C220.527 284.237 221.523 285.45 225.321 287.531C229.184 289.649 237.941 296.141 237.511 296.57C237.392 296.688 234.446 296.209 230.963 295.504C215.032 292.282 198.844 291.227 185.304 292.527C175.28 293.49 150.732 297.093 142.852 298.758C136.466 300.107 131.656 302.243 131.656 303.73C131.656 304.739 136.114 304.359 145.304 302.565C165.926 298.539 183.231 296.534 197.324 296.54C210.744 296.546 219.25 297.532 233.49 300.731L243.351 302.946L246.114 305.734C248.914 308.556 249.818 308.813 250.904 307.094C251.804 305.669 250.683 304.013 244.601 297.786C237.344 290.357 226.69 283.033 223.475 283.263C223.119 283.288 222.5 283.442 222.096 283.604ZM328.074 285.956C314.964 286.686 296.144 289.477 282.725 292.682C276.692 294.124 274.797 294.83 273.197 296.233C269.124 299.806 270.368 299.832 283.628 296.439C302.519 291.607 326.532 289.158 347.185 289.958C352.698 290.171 358.457 290.159 359.984 289.93C363.261 289.439 364.056 288.212 362.114 286.64C360.887 285.647 359.585 285.569 346.039 285.668C337.932 285.728 329.848 285.858 328.074 285.956ZM294.629 302.025C294.201 303.058 291.657 306.135 288.975 308.863C284.251 313.668 283.445 314.965 284.697 315.738C286.09 316.599 293.444 310.669 296.514 306.211C298.553 303.25 298.611 300.604 296.643 300.323C295.725 300.193 295.207 300.63 294.629 302.025ZM197.177 303.984C191.215 307.092 178.252 322.124 163.805 342.681C141.245 374.786 125.665 406.38 119.555 432.419C118.145 438.429 117.926 440.591 117.903 448.722C117.872 460.035 118.688 463.027 124.007 471.094C133.212 485.056 148.926 494.363 174.3 500.881C182.036 502.869 192.844 504.366 196.738 503.991C198.279 503.842 194.992 502.718 183.546 499.476C157.346 492.057 148.577 488.428 138.689 480.914C131.856 475.72 126.255 468.761 123.335 461.836C122.147 459.02 122.003 457.707 121.993 449.601C121.981 440.033 122.584 435.983 125.536 425.804C133.945 396.808 156.811 357.217 183.526 325.398C188.26 319.76 192.832 313.96 193.685 312.51C194.538 311.06 196.365 308.479 197.746 306.775C199.126 305.07 200.256 303.555 200.256 303.406C200.256 302.876 198.765 303.156 197.177 303.984ZM212.617 305.719C211.212 306.497 211.211 306.511 212.41 307.152C213.076 307.508 216.493 308.472 220.002 309.295C231.541 311.998 244.408 318.104 251.343 324.166C253.028 325.639 256.406 329.353 258.848 332.419C262.984 337.611 274.719 354.599 274.719 355.394C274.719 355.589 273.939 356.02 272.986 356.352C269.377 357.609 261.788 363.509 259.558 366.792C258.049 369.013 257.88 373.161 259.22 375.074C262.712 380.054 276.565 381.025 289.734 377.212C296.192 375.342 306.404 370.747 310.936 367.672C315.507 364.571 321.108 359.014 322.393 356.306C323.41 354.168 323.754 350.005 322.915 350.005C322.657 350.005 320.12 352.522 317.277 355.6C312.21 361.083 312.084 361.173 310.929 360.14C307.717 357.265 295.712 340.354 292.921 334.772C290.237 329.403 287.46 324.996 286.308 324.277C285.175 323.571 285.141 323.637 285.532 325.786C286.564 331.463 296.685 349.42 303.915 358.404C306.739 361.912 307.461 363.178 306.973 363.765C305.422 365.632 290.775 371.681 287.806 371.681C287.009 371.681 286.384 370.668 285.369 367.727C283.957 363.64 278.812 353.95 274.247 346.782C269.953 340.038 260.092 327.193 256.288 323.388C250.029 317.127 235.318 309.338 224.054 306.323C218.104 304.73 214.726 304.552 212.617 305.719ZM334.024 309.584C340.771 317.02 343.927 320.931 347.967 326.863C368.023 356.313 387.128 407.088 392.494 445.207C394.934 462.536 394.61 475.186 391.586 480.738C389.444 484.671 385.096 488.571 380.41 490.762C376.934 492.388 375.754 492.624 370.003 492.843C362.125 493.145 358.39 492.438 352.312 489.496C342.749 484.868 334.942 478.842 323.081 466.933C306.786 450.573 294.186 433.107 276.764 402.732C270.417 391.666 264.656 382.599 263.53 381.904C262.158 381.056 265.48 388.913 271.221 400.096C279.27 415.771 289.816 432.414 301.228 447.448C304.12 451.259 306.35 454.512 306.185 454.678C306.019 454.844 300.52 454.663 293.966 454.276C287.411 453.888 274.133 453.667 264.458 453.783C247.235 453.99 246.823 454.023 244.67 455.361C243.461 456.112 242.471 456.94 242.471 457.2C242.471 457.46 249.793 457.657 258.742 457.636C272.84 457.603 276.773 457.807 288.204 459.161C300.294 460.593 313.22 462.684 313.845 463.309C330.304 479.755 341.069 488.175 352.993 493.93C362.271 498.408 364.856 498.945 378.498 499.23C388.913 499.447 391.334 499.32 396.633 498.28C403.685 496.895 408.108 494.977 408.108 493.305C408.108 491.359 404.125 489.82 398.379 489.545L393.282 489.302L394.708 486.08C396.731 481.509 397.786 476.589 398.228 469.666C398.439 466.363 398.681 463.661 398.764 463.661C398.849 463.661 403.373 463.135 408.818 462.492C414.263 461.85 425.17 461.106 433.055 460.84C446.737 460.379 451.139 459.737 449.653 458.42C448.992 457.835 416.803 456.322 406.532 456.394L398.507 456.45L398.128 452.586C395.159 422.334 383.021 382.675 366.463 349.126C353.765 323.398 339.555 305.479 331.849 305.479C330.38 305.479 330.495 305.695 334.024 309.584ZM327.488 356.834C327.488 357.468 328.288 360.343 329.267 363.223C330.245 366.103 332.483 373.217 334.24 379.032C342.311 405.758 349.863 423.414 357.915 434.376C360.517 437.92 361.918 438.613 363.246 437.014C363.834 436.306 363.631 435.497 362.16 432.672C358.464 425.576 353.324 410.297 350.71 398.631C350.169 396.214 349.157 393.051 348.461 391.601C347.231 389.035 347.191 389.009 346.974 390.618C346.851 391.527 347.186 395.044 347.717 398.433C348.597 404.036 348.587 405.847 347.682 404.944C347.108 404.37 342.22 391.147 337.697 377.931C332.799 363.622 330.605 358.44 328.749 356.798C327.507 355.699 327.488 355.699 327.488 356.834ZM271.201 362.492C265.847 366.457 262.987 369.423 263.002 370.994C263.009 371.643 263.399 371.371 264.157 370.19C265.265 368.461 271.264 363.672 275.159 361.406C276.859 360.416 277.776 358.785 276.624 358.797C276.382 358.8 273.942 360.463 271.201 362.492ZM499.513 372.209C496.725 373.908 495.177 376.857 495.177 380.469C495.177 384.721 496.707 386.964 501.587 389.861C508.367 393.885 509.882 396.507 507.239 399.646C505.302 401.944 502.992 402.835 493.834 404.813C483.832 406.973 479.617 409.071 477.675 412.854C476.36 415.419 476.3 415.862 476.969 418.127C478.028 421.714 482.445 425.692 491.366 431.09C499.69 436.128 503.611 439.045 504.638 440.962C505.205 442.02 505.071 442.401 503.725 443.558C501.582 445.4 498.87 445.32 488.601 443.115C473.523 439.875 464.625 440.172 460.75 444.044C459.128 445.665 458.825 446.396 458.825 448.682C458.825 452.582 460.102 455.111 463.997 458.919C467.845 462.681 475.379 466.868 481.984 468.916C486.693 470.376 496.936 471.259 496.936 470.205C496.936 469.028 494.405 467.843 486.153 465.158C476.573 462.04 471.378 459.288 467.207 455.122C464.19 452.109 463.068 449.853 463.73 448.128C464.84 445.24 473.599 445.224 487.261 448.087C492.743 449.235 498.227 450.178 499.446 450.181C503.861 450.192 508.103 447.504 509.277 443.949C510.834 439.233 507.522 435.611 494.618 427.924C484.583 421.946 481.105 418.97 481.105 416.364C481.105 412.882 484.633 411.077 495.763 408.868C505.188 406.997 509.283 404.957 511.492 401.031C513.084 398.199 513.101 396.176 511.557 392.99C510.397 390.595 508.686 389.189 502.167 385.273C501.013 384.58 499.759 383.335 499.382 382.507C497.892 379.24 499.05 374.627 501.928 372.366C503.28 371.303 503.363 371.096 502.438 371.098C501.83 371.099 500.514 371.599 499.513 372.209ZM197.543 377.707C195.865 378.665 194.313 380.63 188.427 389.257C176.442 406.82 166.774 426.43 166.867 432.99C166.904 435.617 168.571 440.318 169.586 440.655C170.313 440.897 170.678 439.819 172.657 431.577C175.228 420.867 181.221 408.411 190.915 393.631C198.011 382.813 200.49 378.392 199.949 377.518C199.503 376.797 199.08 376.83 197.543 377.707ZM195.945 389.697C195.787 390.26 195.487 392.831 195.278 395.409C194.71 402.415 192.866 413.951 190.265 426.77C188.988 433.064 187.943 438.798 187.943 439.513C187.943 441.677 189.51 440.974 190.566 438.336C191.923 434.947 195.919 418.138 196.731 412.399C197.095 409.821 197.642 406.108 197.945 404.148C198.751 398.944 198.62 393.028 197.647 390.703C196.69 388.415 196.357 388.218 195.945 389.697ZM177.975 445.785C177.975 446.204 181.341 447.578 190.875 451.052C195.55 452.756 201.751 455.136 204.653 456.34C210.064 458.585 224.279 465.207 224.796 465.725C224.955 465.883 222.844 468.318 220.106 471.135C209.825 481.709 203.314 493.636 203.074 502.331C202.992 505.311 203.191 506.067 204.402 507.366C205.706 508.766 206.104 508.867 209.137 508.556C215.674 507.887 222.366 504.242 227.865 498.358C229.61 496.49 231.315 494.469 231.653 493.866C232.251 492.802 232.392 492.801 236.549 493.818C238.903 494.395 241.924 495.466 243.263 496.199C253.088 501.58 253.619 501.966 249.507 500.731C249.023 500.586 249.362 501.145 250.26 501.973C252.924 504.429 257.615 505.493 265.924 505.527L273.253 505.557L278.64 508.288C285.276 511.652 291.344 513.104 298.924 513.139C303.403 513.16 304.784 512.974 305.224 512.288C306.183 510.792 303.912 509.555 299.387 509.11C293.22 508.502 287.69 506.769 280.618 503.224C274.351 500.085 274.212 500.046 270.242 500.371C263.421 500.929 254.448 498.213 246.456 493.172C243.168 491.098 230.82 488.477 219.145 487.376L214.875 486.973L216.449 484.251C220.513 477.232 227.926 468.348 229.72 468.348C229.87 468.348 234.103 470.32 239.127 472.731C244.15 475.141 249.398 477.376 250.789 477.696C254.327 478.512 260.206 478.427 269.442 477.429C287.352 475.493 295.529 476.738 309.019 483.456C314.885 486.377 324.556 493.174 324.556 494.375C324.556 494.487 321.456 493.03 317.667 491.139C309.119 486.872 301.945 484.752 296.054 484.752C293.672 484.752 291.722 484.959 291.722 485.211C291.722 486.143 295.112 487.615 301.397 489.411C308.276 491.378 325.313 499.235 324.733 500.173C323.8 501.682 315.083 499.117 304.482 494.216C298.749 491.565 293.622 490.031 289.954 489.872C286.879 489.738 286.731 489.799 286.56 491.267C286.388 492.747 286.532 492.825 290.496 493.413C292.87 493.766 297.408 495.187 301.228 496.775C313.001 501.669 318.712 503.489 322.32 503.494C326.499 503.501 328.53 502.747 329.221 500.931C329.518 500.151 330.041 499.339 330.383 499.128C330.726 498.916 331.006 497.989 331.006 497.066C331.006 491.652 315.499 480.365 301.546 475.622C291.806 472.312 284.255 471.758 270.321 473.334C261.234 474.361 254.186 474.44 250.973 473.552C247.969 472.721 233.09 465.575 233.09 464.963C233.09 464.708 233.881 464.033 234.849 463.461C235.816 462.89 236.608 462.042 236.608 461.577C236.608 460.329 233.167 460.51 230.923 461.878L229.05 463.019L219.49 458.44C208.971 453.401 197.468 448.63 191.253 446.729C187.622 445.618 177.975 444.932 177.975 445.785ZM52.2089 453.414C32.8397 454.331 26.2383 455.075 23.0493 456.701C18.8084 458.862 20.8787 459.249 31.809 458.334C38.91 457.739 47.6221 457.585 63.0559 457.779C98.1158 458.222 104.961 458.162 106.503 457.405C107.276 457.026 108.899 456.552 110.108 456.354C112.468 455.965 113.042 454.713 111.281 453.792C109.448 452.833 69.8356 452.58 52.2089 453.414ZM502.945 457.821C501.605 458.359 501.297 459.315 502.075 460.521C502.381 460.996 510.293 461.294 529.477 461.555C544.311 461.756 558.031 462.059 559.965 462.229C562.872 462.483 563.828 462.323 565.467 461.303C566.941 460.386 567.281 459.898 566.789 459.407C565.664 458.283 545.824 457.291 524.493 457.291C513.367 457.291 503.671 457.53 502.945 457.821ZM88.1453 471.01C87.97 471.184 79.5023 471.42 69.3279 471.535C59.1528 471.648 50.4998 471.944 50.0988 472.192C46.4964 474.417 75.4719 476.076 95.9944 474.819C105.469 474.24 107.418 473.683 106.431 471.839C105.863 470.779 105.154 470.692 97.1395 470.692C92.368 470.692 88.3201 470.835 88.1453 471.01ZM404.736 471.91C404.172 472.239 403.71 472.989 403.71 473.577C403.71 474.568 404.457 474.653 413.899 474.733C423.646 474.815 428.065 474.247 426.819 473.073C426.187 472.477 414.25 471.27 409.249 471.295C407.331 471.305 405.3 471.581 404.736 471.91ZM449.765 472.616C449.283 473.352 448.583 476.004 448.21 478.508C447.638 482.351 447.384 482.997 446.582 482.647C446.06 482.419 443.06 482.11 439.917 481.96C432.282 481.595 431.267 482.188 431.267 487.015C431.267 489.643 431.677 491.243 433.056 494.001C436.177 500.24 444.644 506.588 451.089 507.519C453.622 507.884 453.77 508.029 457.178 513.459C459.098 516.52 461.837 520.518 463.265 522.344C464.693 524.17 465.86 525.817 465.86 526.006C465.86 526.194 465.125 526.348 464.225 526.348C462.061 526.348 455.877 527.975 454.871 528.81C452.177 531.044 462.611 532.822 479.346 532.982C490.626 533.09 492.783 532.76 495.759 530.473C497.157 529.399 497.17 529.334 496.052 528.983C492.891 527.991 490.421 526.309 486.609 522.551C479.525 515.565 476.16 506.97 477.511 499.309C479.423 488.462 487.583 481.25 501.17 478.401C504.306 477.743 508.131 476.646 509.672 475.962C512.156 474.861 512.348 474.65 511.369 474.097C510.109 473.388 505.721 473.667 495.763 475.091C484.932 476.64 467.923 475.518 455.959 472.466C450.282 471.018 450.822 471.005 449.765 472.616ZM515.336 481.934C515.099 482.318 514.83 484.834 514.739 487.525C514.427 496.738 509.667 510.313 503.591 519.318C499.939 524.73 498.695 527.105 498.695 528.662C498.695 535.012 511.092 516.203 515.666 502.914C518.271 495.346 519.36 486.162 518.058 482.74C517.458 481.162 516.068 480.751 515.336 481.934ZM437.848 487.79C438.009 489.18 438.719 491.536 439.424 493.026C441.496 497.4 448.096 503.359 450.994 503.473C451.428 503.49 451.165 501.93 450.248 499.042C449.469 496.591 448.551 492.703 448.209 490.401C447.659 486.707 447.437 486.214 446.316 486.19C445.618 486.175 443.361 485.96 441.301 485.712L437.556 485.262L437.848 487.79ZM224.002 496.143C221.745 498.469 219.106 500.958 218.139 501.672L216.38 502.971L218.432 501.983C222.924 499.822 230.612 493.019 229.419 492.262C228.375 491.599 228.49 491.517 224.002 496.143ZM281.964 495.598C281.48 496.858 282.677 498.062 285.173 498.826C286.356 499.188 290.491 500.904 294.361 502.638C298.23 504.374 303.903 506.463 306.967 507.281C313.468 509.018 320.449 509.31 321.625 507.894C322.026 507.41 322.219 507.015 322.055 507.015C321.889 507.015 319.568 506.601 316.896 506.094C309.856 504.759 303.561 502.641 296.171 499.118C287.07 494.78 282.695 493.696 281.964 495.598Z" fill="white"/>
<defs>
<linearGradient id="paint0_linear_3195_64740" x1="295" y1="-272.5" x2="295" y2="405" gradientUnits="userSpaceOnUse">
<stop stop-color="#182444"/>
<stop offset="1" stop-color="#182444" stop-opacity="0"/>
</linearGradient>
<linearGradient id="paint1_linear_3195_64740" x1="295" y1="-157.326" x2="295" y2="375.539" gradientUnits="userSpaceOnUse">
<stop stop-color="#182444"/>
<stop offset="1" stop-color="#182444" stop-opacity="0"/>
</linearGradient>
<linearGradient id="paint2_linear_3195_64740" x1="295" y1="57" x2="295" y2="477" gradientUnits="userSpaceOnUse">
<stop stop-color="#2463EB"/>
<stop offset="1" stop-color="#2463EB" stop-opacity="0"/>
</linearGradient>
</defs>
</svg>
