<svg width="585" height="534" viewBox="0 0 585 534" fill="none" xmlns="http://www.w3.org/2000/svg">
<circle cx="295" cy="267" r="267" fill="url(#paint0_linear_3195_64771)"/>
<circle cx="295" cy="267" r="210" fill="url(#paint1_linear_3195_64771)"/>
<circle cx="295" cy="267" r="209.5" stroke="url(#paint2_linear_3195_64771)" stroke-opacity="0.2"/>
<g clip-path="url(#clip0_3195_64771)">
<path fill-rule="evenodd" clip-rule="evenodd" d="M218.653 92.5498C203.144 94.1557 185.318 99.4168 170.264 106.83C153.362 115.153 139.952 124.923 126.897 138.422C104.077 162.02 90.0228 189.526 84.1521 222.076C82.6281 230.524 82.6126 256.465 84.1264 265.17C89.3417 295.17 102.937 321.651 123.922 342.683C142.168 360.969 166.578 374.565 190.965 380.023C208.721 383.997 229.292 384.547 247.03 381.522C273.432 377.02 298.876 364.625 314.461 348.672C318.239 344.805 322.9 338.538 322.9 337.326C322.9 336.036 321.63 336.84 314.014 342.942C302.339 352.297 295.585 356.695 284.069 362.439C262.107 373.395 240.245 378.155 216.264 377.203C191.958 376.238 168.551 368.605 148.252 355.023C128.258 341.646 112.802 324.211 102.545 303.46C93.0624 284.278 88.718 265.471 88.718 243.599C88.718 226.355 91.1913 212.362 97.0781 196.305C104.696 175.524 116.245 157.62 132.594 141.244C147.08 126.736 161.747 116.702 179.703 109.018C216.368 93.3285 257.554 94.3987 292.437 111.948C319.343 125.485 341.092 147.207 354.158 173.595C362.137 189.709 365.757 203.159 368.417 226.565C368.847 230.351 369.457 233.4 369.773 233.342C372.085 232.915 373.09 220.072 371.629 209.616C369.198 192.223 363.564 176.686 353.791 160.427C331.665 123.616 291.538 97.8462 248.488 92.8006C240.307 91.8418 226.602 91.7268 218.653 92.5498ZM389.257 101.307C388.249 102.533 387.281 104.485 387.106 105.646C386.93 106.807 386.526 108.584 386.207 109.595C385.563 111.637 385.447 117.194 386.004 119.278C386.284 120.326 386.797 120.625 388.312 120.625C389.384 120.625 390.538 120.289 390.876 119.877C391.97 118.546 395.03 104.195 394.672 102.071C394.512 101.12 392.402 99.078 391.579 99.078C391.311 99.078 390.266 100.081 389.257 101.307ZM431.707 117.162C429.944 117.483 427.246 118.487 425.712 119.393C424.179 120.299 420.617 122.17 417.797 123.55C409.886 127.423 405.877 131.363 407.226 133.942C408.01 135.442 410.566 135.236 413.706 133.421C415.184 132.566 418.545 130.943 421.173 129.813C423.802 128.683 426.49 127.453 427.147 127.08C427.804 126.707 429.393 125.842 430.678 125.159C431.963 124.476 434.22 122.828 435.694 121.497C438.103 119.321 438.302 118.943 437.667 117.756C436.903 116.324 436.516 116.286 431.707 117.162ZM219.251 138.351C201.994 140.863 183.564 148.551 170.975 158.488L168.7 160.284L166.991 158.644C164.723 156.468 163.751 157.098 164.894 160.004L165.766 162.223L159.054 169.149C142.784 185.934 132.694 205.895 129.271 228.061C127.542 239.26 128.598 255.342 131.846 267.265C141.332 302.088 172.357 329.906 208.64 336.121C218.077 337.737 231.855 337.723 241.403 336.088C254.34 333.872 267.93 328.555 278.658 321.513L284.534 317.655L286.812 319.991C289.728 322.984 290.785 322.207 288.685 318.617L287.167 316.021L293.967 309.566C301.791 302.138 307.384 294.99 310.841 288.001C314.522 280.558 317.03 270.323 315.007 270.998C314.609 271.131 312.768 273.877 310.917 277.1C305.352 286.786 300.298 293.484 292.444 301.581C288.343 305.809 284.527 309.515 283.963 309.818C282.908 310.383 281.293 308.445 267.23 289.727L262.745 283.758L267.398 279.373C277.567 269.789 284.926 256.447 286.149 245.378C286.605 241.253 285.646 234.88 284.2 232.428C283.356 230.995 283.345 230.613 284.104 229.186C284.611 228.234 284.939 226.068 284.902 223.924C284.77 216.332 279.461 205.642 271.62 197.178L267.235 192.445L273.236 185.275C284.36 171.98 288.463 165.515 285.776 165.515C284.835 165.515 270.909 179.531 266.955 184.457C264.747 187.207 262.884 189.456 262.813 189.456C262.742 189.456 260.977 188.421 258.89 187.155C254.604 184.557 248.922 182.172 243.342 180.629C240.453 179.83 237.24 179.583 229.705 179.582C221.177 179.58 219.205 179.767 215.08 180.964C208.962 182.738 201.39 186.299 196.595 189.657L192.823 192.299L189.608 188.103C187.84 185.795 184.637 181.721 182.49 179.05C176.082 171.078 172.242 165.584 172.632 164.95C173.469 163.594 186.098 155.661 191.706 152.968C204.208 146.968 214.181 144.583 228.617 144.143C240.227 143.789 246.896 144.555 256.582 147.355C287.768 156.368 313.017 183.428 319.963 215.283C321.324 221.523 322.291 231.833 322.297 240.182C322.303 246.527 322.725 247.456 324.424 244.858C327.13 240.72 327.971 227.12 326.171 216.618C319.786 179.369 289.856 148.791 250.913 139.732C246.612 138.731 243.088 138.442 233.29 138.286C226.554 138.178 220.236 138.208 219.251 138.351ZM162.328 174.218C148.371 189.117 139.634 205.816 135.783 224.952C133.886 234.378 133.895 248.547 135.805 258.145C139.194 275.175 147.053 290.619 158.423 302.589C161.231 305.546 163.701 307.958 163.91 307.95C164.119 307.941 165.23 306.541 166.38 304.839C169.689 299.941 175.779 292.574 181.459 286.599C184.337 283.572 186.688 280.879 186.683 280.614C186.678 280.35 185.588 278.921 184.262 277.44C177.211 269.566 172.504 259.995 170.525 249.503C169.59 244.549 170.108 230.363 171.396 225.667C174.054 215.975 179.447 206.102 185.993 198.949C187.692 197.092 189.082 195.389 189.082 195.165C189.082 194.78 183.776 188.149 177.091 180.179C175.434 178.204 172.951 174.772 171.574 172.553C170.196 170.334 168.756 168.515 168.373 168.513C167.99 168.51 165.271 171.077 162.328 174.218ZM222.704 185.309C215.047 186.494 203.891 191.275 198.395 195.727L196.657 197.135L200.747 202.088C208.299 211.233 212.112 217.587 210.049 217.587C209.562 217.587 200.481 208.04 195.675 202.474C194.61 201.24 193.512 200.23 193.237 200.23C192.338 200.23 184.398 210.338 182.188 214.298C179.335 219.409 176.797 227.02 175.903 233.149C174.002 246.177 177.999 260.274 186.639 271.006C188.693 273.557 190.435 275.645 190.51 275.645C190.584 275.645 194.53 271.75 199.278 266.991C205.524 260.732 208.138 258.479 208.733 258.847C209.393 259.256 209.17 260.029 207.6 262.778C205.654 266.185 200.045 273.607 196.65 277.267L194.866 279.19L196.305 280.423C198.551 282.347 209.274 287.435 213.575 288.616C219.671 290.29 233.866 290.143 240.086 288.341C244.64 287.023 253.328 283.156 253.931 282.179C254.093 281.916 251.531 277.719 248.239 272.853C242.315 264.099 241.502 262.477 243.043 262.477C243.865 262.477 250.464 269.114 255.814 275.32L258.887 278.886L262.055 275.919C273.249 265.432 279.213 253.206 281.241 236.582L282.028 230.14L280.126 224.312C277.6 216.568 276.23 213.521 273.088 208.655C270.436 204.547 263.784 197.237 262.698 197.237C262.052 197.237 256.172 203.635 247.709 213.547C242.363 219.808 239.861 221.524 239.861 218.928C239.861 217.306 245.991 208.468 252.509 200.696C258.366 193.711 258.386 193.677 257.042 192.796C254.105 190.87 245.317 187.165 241.454 186.223C236.357 184.98 227.593 184.554 222.704 185.309ZM222.027 223.067C216.544 225.786 213.47 230.499 213.109 236.74C212.593 245.691 219.299 252.272 228.208 251.555C236.318 250.903 242.051 245.142 242.704 236.987C243.391 228.416 237.007 221.776 228.082 221.777C225.749 221.777 223.783 222.196 222.027 223.067ZM370.848 255.955C365.871 257.143 362.267 262.656 363.202 267.651C363.65 270.044 364.483 270.267 352.668 264.837C343.126 260.453 336.202 257.923 335.557 258.585C334.996 259.16 339.369 262.946 343.377 265.355C345.189 266.445 351.337 269.472 357.039 272.083C367.069 276.676 374.872 280.54 374.874 280.913C374.874 281.013 374.202 282.086 373.381 283.297C372.559 284.508 371.887 285.966 371.887 286.536C371.887 288.02 370.379 288.652 362.786 290.349C350.519 293.09 346.912 295.934 347.572 302.338C347.97 306.201 349.706 309.259 352.635 311.253L354.768 312.705L353.133 313.327C352.234 313.67 351.299 313.951 351.056 313.951C350.813 313.951 349.381 314.734 347.873 315.692C341.175 319.948 343.264 328.152 352.051 332.103C354.433 333.174 356.786 333.718 359.525 333.834C361.724 333.926 363.524 334.058 363.524 334.127C363.524 334.196 362.146 335.543 360.462 337.12C356.72 340.623 352.584 346.376 351.595 349.452C350.544 352.717 351.237 355.426 353.672 357.568C356.048 359.658 358.864 360.348 362.809 359.806C366.323 359.323 372.197 356.589 374.981 354.14C377.531 351.897 377.858 351.837 377.87 353.603C377.884 355.712 379.934 361.772 380.993 362.834C381.52 363.361 382.367 363.632 382.875 363.436C383.699 363.12 383.705 362.811 382.933 360.619C381.572 356.753 380.848 349.539 381.618 347.498C382.357 345.536 381.615 341.428 380.453 341.047C380.072 340.923 378.79 342.283 377.606 344.072C374.859 348.218 370.191 352.598 366.948 354.073C363.759 355.523 358.04 355.655 356.696 354.309C354.183 351.791 357.235 346.48 365.708 338.625C370.442 334.236 371.964 333.193 375.243 332.092C377.39 331.371 379.536 330.457 380.011 330.061C380.488 329.666 381.007 329.472 381.166 329.631C381.896 330.362 386.518 343.563 387.831 348.665C389.609 355.574 389.82 362.679 388.364 366.619C387.817 368.099 386.689 372.543 385.858 376.495C383.991 385.374 383.274 401.421 384.399 409.136C386.583 424.1 393.683 438.619 403.848 448.908C411.224 456.373 417.722 460.783 424.605 462.991C429.809 464.66 430.787 464.274 427.434 461.875C411.846 450.72 405.653 444.865 399.422 435.389C395.255 429.051 392.669 423.136 390.574 415.146C389.35 410.477 389.017 407.531 388.777 399.241C388.448 387.894 389.548 379.081 392.438 369.913C396.205 357.964 395.037 351.47 384.156 323.851C377.064 305.848 375.917 301.837 375.848 294.798C375.79 288.817 376.419 286.714 378.959 284.411C380.114 283.364 380.335 283.357 383.092 284.275C384.889 284.873 386.905 286.178 388.355 287.683C389.648 289.024 392.392 291.337 394.454 292.822C401.634 297.994 405.328 305.815 412.493 331.009C418.051 350.554 421.765 358.611 426.299 360.96C429.01 362.364 429.383 361.488 427.427 358.305C424.478 353.502 422.216 347.328 417.218 330.43C410.419 307.449 407.556 300.328 402.01 292.601C401.255 291.549 403.336 292.211 412.918 296.066C425.178 301.001 425.087 300.943 429.782 306.778C431.977 309.507 436.592 312.753 438.276 312.753C439.826 312.753 440.424 310.258 439.061 309.484C438.46 309.142 436.878 307.854 435.545 306.623L433.121 304.382L440.29 307.571C446.187 310.194 466.25 318.277 469.949 319.52C470.489 319.702 471.4 321.284 471.971 323.036C473.506 327.739 477.403 334.136 481.115 338.044L484.387 341.489L483.995 351.511C483.779 357.024 483.069 367.459 482.416 374.701C479.123 411.25 478.682 417.472 478.615 428.27C478.526 442.612 479.192 445.952 484.208 456.319L487.783 463.709L485.678 467.723C482.92 472.98 476.579 480.287 468.069 488.011C457.005 498.054 442.248 507.054 429.212 511.708C423.654 513.692 423.56 513.759 423.383 515.791C423.239 517.451 424.282 519.843 428.698 527.978C434.828 539.271 437.148 542.891 443.154 550.539C449.354 558.434 454.238 561.594 456.591 559.237C457.137 558.689 457.094 558.299 456.401 557.532C455.585 556.628 455.814 556.346 458.949 554.404C463.524 551.569 468.68 546.271 471.145 541.868C477.24 530.987 480.897 528.632 494.654 526.729C502.547 525.638 506.249 524.001 510.064 519.913C513.232 516.52 516.197 510.951 517.113 506.673L517.758 503.661L519.349 504.891C523.428 508.047 529.245 512.064 529.736 512.064C530.496 512.064 528.39 509.205 522.241 501.889C506.271 482.89 499.819 474.26 493.092 462.895C487.774 453.911 484.434 446.326 483.643 441.438C482.2 432.521 482.908 415.537 486.011 384.577C486.985 374.866 488.097 361.859 488.482 355.673C489.096 345.81 489.299 344.476 490.126 344.834C496.309 347.508 499.194 348.171 506.003 348.481C513.733 348.833 517.735 348.318 523.216 346.262C525.988 345.223 526.883 344.551 527.655 342.93C528.186 341.813 528.454 340.732 528.25 340.528C528.047 340.324 526.531 340.504 524.882 340.927C522.299 341.59 521.21 341.552 517.028 340.652C504.117 337.872 491.52 331.831 483.303 324.479L480.913 322.341L493.16 326.559C522.947 336.818 537.902 341.136 539.729 340.005C540.746 339.374 538.743 336.956 536.31 335.876C535.085 335.333 532.201 334.26 529.901 333.494L525.719 332.099L523.581 327.923C519.661 320.267 514.808 314.965 508.394 311.331C506.798 310.426 506.765 310.356 508.095 310.689C511.729 311.599 517.317 314.73 520.198 317.47C521.92 319.109 524.673 322.609 526.316 325.249C529.009 329.576 530.831 331.308 532.692 331.308C535.421 331.308 526.707 317.259 521.332 312.995C514.553 307.617 506.537 304.848 497.641 304.812C491.133 304.786 486.071 305.994 480.017 309.019C477.553 310.25 475.372 311.334 475.171 311.429C474.97 311.524 473.007 308.696 470.809 305.144C461.414 289.966 451.392 276.823 445.197 271.557C439.228 266.484 437.927 266.109 410.719 261.617C399.711 259.801 388.655 257.774 386.149 257.115C380.525 255.634 374.2 255.154 370.848 255.955ZM370.558 261.016C367.357 262.756 366.848 265.993 369.154 269.936C370.816 272.776 373.079 274.151 383.337 278.552C390.653 281.69 395.374 282.866 406.525 284.329C414.145 285.328 415.498 285.647 415.498 286.447C415.498 287.094 413.649 287.605 409.408 288.13L406.313 288.513L413.594 291.271C417.598 292.788 420.874 293.907 420.874 293.758C420.874 293.608 420.312 292.694 419.624 291.726C418.142 289.642 418.511 288.048 420.412 288.321C421.308 288.45 422.455 289.693 423.903 292.104C425.099 294.097 426.799 296.059 427.722 296.511C430.367 297.809 467.642 310.389 467.944 310.086C468.305 309.725 463.099 301.571 457.072 293.057C450.962 284.427 444.443 276.932 440.425 273.92C436.486 270.966 432.898 270.066 409.225 266.087C399.368 264.431 388.53 262.402 385.141 261.579C378.228 259.9 372.983 259.697 370.558 261.016ZM189.362 285.694C186.747 288.035 175.562 300.278 170.96 305.836C167.86 309.58 167.167 310.765 167.701 311.409C169.195 313.213 180.28 320.094 186.141 322.855C193.003 326.089 199.277 328.207 207.004 329.898C211.122 330.799 214.566 331.003 225.225 330.98C236.915 330.956 238.995 330.799 244.043 329.557C255.539 326.728 265.513 322.475 275.101 316.313C277.734 314.621 279.887 313.12 279.887 312.976C279.887 312.833 277.392 309.694 274.344 306.001C271.295 302.308 267.027 296.997 264.861 294.199C262.693 291.401 260.339 288.589 259.627 287.95C258.34 286.795 258.318 286.799 254.325 288.938C235.561 298.993 213.144 297.904 194.596 286.038C192.865 284.93 191.386 284.035 191.311 284.048C191.235 284.062 190.358 284.802 189.362 285.694ZM365.615 293.766C357.328 295.669 354.775 296.558 353.078 298.134C351.645 299.464 351.472 299.987 351.757 302.117C352.192 305.368 353.732 307.367 357.105 309.063C359.793 310.414 359.989 310.429 363.049 309.536C364.788 309.028 367.518 307.781 369.114 306.765L372.015 304.918L371.571 302.102C371.326 300.554 370.961 297.797 370.76 295.978L370.394 292.669L365.615 293.766ZM369.796 313.457C368.154 314.113 364.121 315.198 360.835 315.868C350.7 317.933 346.866 320.926 349.618 324.626C352.318 328.255 358.386 329.982 364.798 328.947C368.438 328.36 378.46 324.074 378.458 323.106C378.455 321.584 374.352 312.439 373.636 312.359C373.167 312.307 371.439 312.801 369.796 313.457ZM436.666 315.334C435.968 317.156 440.464 332.427 442.735 335.947C443.63 337.334 445.611 337.753 446.265 336.693C446.469 336.362 445.817 334.409 444.817 332.354C443.816 330.297 442.585 326.864 442.08 324.724C441.575 322.584 440.891 319.836 440.561 318.616C439.669 315.325 437.401 313.415 436.666 315.334ZM422.517 466.625C421.096 467.453 421.204 468.801 422.867 471.009C423.635 472.027 427.117 478.666 430.604 485.76C434.092 492.855 437.516 499.387 438.213 500.275C439.44 501.837 442.381 502.564 442.381 501.306C442.381 500.984 441.068 498.224 439.462 495.171C437.857 492.118 434.884 485.698 432.856 480.904C429.531 473.047 425.756 466.66 424.16 466.192C423.832 466.095 423.092 466.29 422.517 466.625Z" fill="white"/>
</g>
<defs>
<linearGradient id="paint0_linear_3195_64771" x1="295" y1="-272.5" x2="295" y2="405" gradientUnits="userSpaceOnUse">
<stop stop-color="#182444"/>
<stop offset="1" stop-color="#182444" stop-opacity="0"/>
</linearGradient>
<linearGradient id="paint1_linear_3195_64771" x1="295" y1="-157.326" x2="295" y2="375.539" gradientUnits="userSpaceOnUse">
<stop stop-color="#182444"/>
<stop offset="1" stop-color="#182444" stop-opacity="0"/>
</linearGradient>
<linearGradient id="paint2_linear_3195_64771" x1="295" y1="57" x2="295" y2="477" gradientUnits="userSpaceOnUse">
<stop stop-color="#2463EB"/>
<stop offset="1" stop-color="#2463EB" stop-opacity="0"/>
</linearGradient>
<clipPath id="clip0_3195_64771">
<rect width="584" height="531" fill="white" transform="translate(0.5 3)"/>
</clipPath>
</defs>
</svg>
