<svg width="48" height="49" viewBox="0 0 48 49" fill="none" xmlns="http://www.w3.org/2000/svg">
<path d="M29 16H19C16 16 14 17.5 14 21V28C14 31.5 16 33 19 33H29C32 33 34 31.5 34 28V21C34 17.5 32 16 29 16ZM29.47 22.09L26.34 24.59C25.68 25.12 24.84 25.38 24 25.38C23.16 25.38 22.31 25.12 21.66 24.59L18.53 22.09C18.21 21.83 18.16 21.35 18.41 21.03C18.67 20.71 19.14 20.65 19.46 20.91L22.59 23.41C23.35 24.02 24.64 24.02 25.4 23.41L28.53 20.91C28.85 20.65 29.33 20.7 29.58 21.03C29.84 21.35 29.79 21.83 29.47 22.09Z" fill="white" fill-opacity="0.5"/>
<circle cx="24" cy="24.5" r="23.5" stroke="#6884CA" stroke-opacity="0.3"/>
</svg>
