<svg width="24" height="24" viewBox="0 0 24 24" fill="none" xmlns="http://www.w3.org/2000/svg">
<path d="M15.9589 21.3202C15.7689 21.3202 15.5789 21.2502 15.4289 21.1002L13.9089 19.5802C13.6189 19.2902 13.6189 18.8102 13.9089 18.5202C14.1989 18.2302 14.6789 18.2302 14.9689 18.5202L15.9589 19.5102L18.4689 17.0002C18.7589 16.7102 19.2389 16.7102 19.5289 17.0002C19.8189 17.2902 19.8189 17.7702 19.5289 18.0602L16.4889 21.1002C16.3389 21.2502 16.1489 21.3202 15.9589 21.3202Z" fill="#1C9FDA"/>
<path d="M12.1587 11.62C12.1287 11.62 12.1087 11.62 12.0787 11.62C12.0287 11.61 11.9587 11.61 11.8987 11.62C8.99873 11.53 6.80873 9.25 6.80873 6.44C6.79873 5.06 7.33873 3.76 8.31873 2.78C9.29873 1.8 10.5987 1.25 11.9887 1.25C14.8487 1.25 17.1787 3.58 17.1787 6.44C17.1787 9.25 14.9887 11.52 12.1887 11.62C12.1787 11.62 12.1687 11.62 12.1587 11.62ZM11.9887 2.75C10.9987 2.75 10.0787 3.14 9.37873 3.83C8.68873 4.53 8.30873 5.45 8.30873 6.43C8.30873 8.43 9.86873 10.05 11.8587 10.11C11.9187 10.1 12.0487 10.1 12.1787 10.11C14.1487 10.02 15.6787 8.41 15.6787 6.43C15.6787 4.41 14.0187 2.75 11.9887 2.75Z" fill="#1C9FDA"/>
<path d="M11.9902 22.5602C9.95016 22.5602 8.02016 22.0302 6.56016 21.0502C5.17016 20.1202 4.41016 18.8502 4.41016 17.4802C4.41016 16.1102 5.18016 14.8502 6.56016 13.9302C9.55016 11.9302 14.4102 11.9302 17.4002 13.9302C17.7402 14.1602 17.8402 14.6302 17.6102 14.9702C17.3802 15.3202 16.9102 15.4102 16.5702 15.1802C14.0802 13.5202 9.88016 13.5202 7.39016 15.1802C6.43016 15.8202 5.91016 16.6302 5.91016 17.4802C5.91016 18.3302 6.43016 19.1602 7.39016 19.8002C8.60016 20.6102 10.2302 21.0502 11.9802 21.0502C12.3902 21.0502 12.7302 21.3902 12.7302 21.8002C12.7302 22.2102 12.4002 22.5602 11.9902 22.5602Z" fill="#1C9FDA"/>
</svg>
